<svg width="63" height="62" viewBox="0 0 63 62" fill="none" xmlns="http://www.w3.org/2000/svg">
<path d="M30.4184 0L0 14.3643V21.8374H63V14.3247L30.4184 0ZM58.8 17.7181H4.2V16.9527L30.4816 4.54198L58.8 16.9924V17.7181Z" fill="#E37A70"/>
<path d="M58.8 50.6721H4.19995V54.7914H58.8V50.6721Z" fill="#E37A70"/>
<path d="M63 57.8807H0V62H63V57.8807Z" fill="#E37A70"/>
<path d="M9.45 25.9567H5.25V46.5529H9.45V25.9567Z" fill="#E37A70"/>
<path d="M57.75 25.9567H53.55V46.5529H57.75V25.9567Z" fill="#E37A70"/>
<path d="M45.1499 25.9567H40.95V46.5529H45.1499V25.9567Z" fill="#E37A70"/>
<path d="M22.05 25.9567H17.85V46.5529H22.05V25.9567Z" fill="#E37A70"/>
<path d="M33.6 25.9567H29.4V46.5529H33.6V25.9567Z" fill="#E37A70"/>
</svg>
