<svg width="321" height="198" viewBox="0 0 321 198" fill="none" xmlns="http://www.w3.org/2000/svg">
<path d="M146.18 197.807L124.927 190.962C122.697 190.266 121.443 187.674 122.07 185.199L169.628 3.35033C170.255 0.875143 172.59 -0.517149 174.82 0.178997L196.073 7.02443C198.303 7.72058 199.557 10.3118 198.93 12.787L151.372 194.636C150.71 197.111 148.41 198.542 146.18 197.807ZM106.462 154.414L121.617 136.469C123.22 134.574 123.116 131.557 121.339 129.817L89.7727 98.9931L121.339 68.1693C123.116 66.4289 123.255 63.4123 121.617 61.5172L106.462 43.5721C104.894 41.7157 102.246 41.5997 100.539 43.3787L50.3327 95.5897C48.5558 97.4074 48.5558 100.54 50.3327 102.358L100.539 154.607C102.246 156.386 104.894 156.309 106.462 154.414ZM220.461 154.646L270.667 102.396C272.444 100.579 272.444 97.4461 270.667 95.6284L220.461 43.3401C218.789 41.5997 216.141 41.677 214.538 43.5334L199.383 61.4785C197.78 63.3736 197.884 66.3902 199.661 68.1306L231.227 98.9931L199.661 129.817C197.884 131.557 197.745 134.574 199.383 136.469L214.538 154.414C216.106 156.309 218.754 156.386 220.461 154.646Z" fill="#C64A49"/>
<g filter="url(#filter0_d_383_2905)">
<path d="M6.56 86.08H15.56C19.32 86.08 22.1067 87.28 23.92 89.68C25.7333 92.08 26.64 95.5333 26.64 100.04C26.64 104.547 25.7333 108 23.92 110.4C22.1067 112.8 19.32 114 15.56 114H6.56V86.08ZM15.16 109.28C16.9467 109.28 18.2533 108.707 19.08 107.56C19.9067 106.413 20.32 104.747 20.32 102.56V97.48C20.32 95.32 19.9067 93.6667 19.08 92.52C18.2533 91.3733 16.9467 90.8 15.16 90.8H12.48V109.28H15.16ZM40.5444 114.48C37.0777 114.48 34.451 113.52 32.6644 111.6C30.8777 109.68 29.9844 107.067 29.9844 103.76C29.9844 102.08 30.211 100.573 30.6644 99.24C31.1444 97.88 31.811 96.7333 32.6644 95.8C33.5444 94.84 34.5977 94.12 35.8244 93.64C37.0777 93.1333 38.4777 92.88 40.0244 92.88C41.571 92.88 42.9577 93.1333 44.1844 93.64C45.411 94.12 46.451 94.8133 47.3044 95.72C48.1577 96.6267 48.811 97.7333 49.2644 99.04C49.7444 100.32 49.9844 101.76 49.9844 103.36V105.12H35.8644V105.48C35.8644 106.813 36.2777 107.893 37.1044 108.72C37.931 109.52 39.1444 109.92 40.7444 109.92C41.971 109.92 43.0244 109.693 43.9044 109.24C44.7844 108.76 45.5444 108.133 46.1844 107.36L49.3844 110.84C48.5844 111.827 47.4644 112.68 46.0244 113.4C44.5844 114.12 42.7577 114.48 40.5444 114.48ZM40.0644 97.12C38.7844 97.12 37.7577 97.52 36.9844 98.32C36.2377 99.0933 35.8644 100.147 35.8644 101.48V101.8H44.1844V101.48C44.1844 100.12 43.811 99.0533 43.0644 98.28C42.3444 97.5067 41.3444 97.12 40.0644 97.12ZM54.3288 84.4H60.2488V97.12H60.5288C61.0354 95.8933 61.7688 94.88 62.7288 94.08C63.6888 93.28 64.9954 92.88 66.6488 92.88C67.7954 92.88 68.8354 93.0933 69.7688 93.52C70.7288 93.9467 71.5421 94.6 72.2088 95.48C72.9021 96.36 73.4354 97.48 73.8088 98.84C74.2088 100.2 74.4088 101.813 74.4088 103.68C74.4088 105.547 74.2088 107.16 73.8088 108.52C73.4354 109.88 72.9021 111 72.2088 111.88C71.5421 112.76 70.7288 113.413 69.7688 113.84C68.8354 114.267 67.7954 114.48 66.6488 114.48C64.9954 114.48 63.6888 114.093 62.7288 113.32C61.7688 112.52 61.0354 111.493 60.5288 110.24H60.2488V114H54.3288V84.4ZM64.0888 109.88C65.4221 109.88 66.4488 109.48 67.1688 108.68C67.8888 107.853 68.2488 106.72 68.2488 105.28V102.08C68.2488 100.64 67.8888 99.52 67.1688 98.72C66.4488 97.8933 65.4221 97.48 64.0888 97.48C63.0488 97.48 62.1421 97.7333 61.3688 98.24C60.6221 98.7467 60.2488 99.5467 60.2488 100.64V106.72C60.2488 107.813 60.6221 108.613 61.3688 109.12C62.1421 109.627 63.0488 109.88 64.0888 109.88ZM91.4331 110.24H91.1931C90.7398 111.413 90.0198 112.413 89.0331 113.24C88.0731 114.067 86.7665 114.48 85.1131 114.48C84.1265 114.48 83.2198 114.32 82.3931 114C81.5665 113.653 80.8598 113.147 80.2731 112.48C79.6865 111.813 79.2198 111 78.8731 110.04C78.5531 109.08 78.3931 107.973 78.3931 106.72V93.36H84.3131V105.92C84.3131 108.587 85.4731 109.92 87.7931 109.92C88.2465 109.92 88.6865 109.867 89.1131 109.76C89.5665 109.627 89.9531 109.44 90.2731 109.2C90.6198 108.933 90.8998 108.613 91.1131 108.24C91.3265 107.867 91.4331 107.427 91.4331 106.92V93.36H97.3531V114H91.4331V110.24ZM123.258 116.08C123.258 118.267 122.338 119.88 120.497 120.92C118.658 121.96 115.764 122.48 111.818 122.48C109.844 122.48 108.218 122.36 106.938 122.12C105.658 121.907 104.631 121.587 103.858 121.16C103.111 120.733 102.578 120.227 102.258 119.64C101.964 119.053 101.818 118.413 101.818 117.72C101.818 116.547 102.164 115.653 102.858 115.04C103.551 114.453 104.524 114 105.778 113.68V113.44C104.898 113.173 104.191 112.8 103.658 112.32C103.151 111.813 102.898 111.107 102.898 110.2C102.898 109.187 103.231 108.44 103.898 107.96C104.591 107.48 105.498 107.107 106.618 106.84V106.6C105.391 106.013 104.431 105.187 103.738 104.12C103.071 103.053 102.738 101.76 102.738 100.24C102.738 99.04 102.951 97.9867 103.378 97.08C103.804 96.1467 104.404 95.3733 105.178 94.76C105.978 94.1467 106.924 93.68 108.018 93.36C109.111 93.04 110.338 92.88 111.697 92.88C113.004 92.88 114.218 93.0267 115.338 93.32V92.2C115.338 91.4 115.618 90.7333 116.178 90.2C116.738 89.6667 117.511 89.4 118.498 89.4H122.138V93.72H117.178V94.08C118.298 94.6667 119.164 95.48 119.778 96.52C120.418 97.5333 120.738 98.7733 120.738 100.24C120.738 101.44 120.524 102.493 120.098 103.4C119.671 104.307 119.058 105.08 118.258 105.72C117.458 106.333 116.498 106.8 115.378 107.12C114.284 107.44 113.058 107.6 111.697 107.6C111.084 107.6 110.498 107.573 109.938 107.52C109.378 107.44 108.844 107.333 108.338 107.2C108.044 107.36 107.791 107.56 107.578 107.8C107.391 108.04 107.298 108.347 107.298 108.72C107.298 109.04 107.378 109.293 107.538 109.48C107.698 109.667 107.911 109.813 108.178 109.92C108.471 110 108.804 110.053 109.178 110.08C109.551 110.107 109.938 110.12 110.338 110.12H115.058C116.524 110.12 117.778 110.267 118.818 110.56C119.858 110.853 120.711 111.267 121.378 111.8C122.044 112.333 122.524 112.96 122.818 113.68C123.111 114.4 123.258 115.2 123.258 116.08ZM117.658 116.52C117.658 115.987 117.444 115.56 117.018 115.24C116.591 114.947 115.778 114.8 114.578 114.8H107.498C106.964 115.253 106.698 115.813 106.698 116.48C106.698 117.12 106.964 117.64 107.498 118.04C108.058 118.467 108.991 118.68 110.298 118.68H113.778C115.138 118.68 116.124 118.493 116.738 118.12C117.351 117.747 117.658 117.213 117.658 116.52ZM111.697 103.84C112.898 103.84 113.764 103.547 114.298 102.96C114.858 102.373 115.138 101.627 115.138 100.72V99.76C115.138 98.8533 114.858 98.1067 114.298 97.52C113.764 96.9333 112.898 96.64 111.697 96.64C110.524 96.64 109.671 96.9333 109.138 97.52C108.604 98.1067 108.338 98.8533 108.338 99.76V100.72C108.338 101.627 108.604 102.373 109.138 102.96C109.671 103.547 110.524 103.84 111.697 103.84ZM160.546 114.48C156.813 114.48 154.04 113.227 152.226 110.72C150.44 108.187 149.546 104.627 149.546 100.04C149.546 95.4533 150.44 91.9067 152.226 89.4C154.04 86.8667 156.813 85.6 160.546 85.6C161.986 85.6 163.253 85.8 164.346 86.2C165.466 86.5733 166.426 87.1067 167.226 87.8C168.026 88.4933 168.68 89.3333 169.186 90.32C169.72 91.3067 170.133 92.4133 170.426 93.64L164.826 95C164.666 94.3333 164.48 93.72 164.266 93.16C164.053 92.6 163.773 92.12 163.426 91.72C163.106 91.32 162.693 91.0133 162.186 90.8C161.706 90.56 161.12 90.44 160.426 90.44C158.8 90.44 157.64 91.08 156.946 92.36C156.28 93.6133 155.946 95.36 155.946 97.6V102.48C155.946 104.72 156.28 106.48 156.946 107.76C157.64 109.013 158.8 109.64 160.426 109.64C161.813 109.64 162.813 109.213 163.426 108.36C164.066 107.507 164.533 106.413 164.826 105.08L170.426 106.44C170.133 107.667 169.72 108.773 169.186 109.76C168.68 110.747 168.026 111.6 167.226 112.32C166.426 113.013 165.466 113.547 164.346 113.92C163.253 114.293 161.986 114.48 160.546 114.48ZM174.611 109.4H180.931V89H174.611V84.4H186.851V109.4H193.171V114H174.611V109.4ZM209.155 90.72C207.822 90.72 206.888 90.4533 206.355 89.92C205.848 89.36 205.595 88.6933 205.595 87.92V86.76C205.595 85.96 205.848 85.2933 206.355 84.76C206.888 84.2267 207.822 83.96 209.155 83.96C210.488 83.96 211.408 84.2267 211.915 84.76C212.448 85.2933 212.715 85.96 212.715 86.76V87.92C212.715 88.6933 212.448 89.36 211.915 89.92C211.408 90.4533 210.488 90.72 209.155 90.72ZM199.635 109.4H206.195V97.96H199.635V93.36H212.115V109.4H218.195V114H199.635V109.4ZM232.699 114.48C231.073 114.48 229.606 114.24 228.299 113.76C227.019 113.253 225.926 112.533 225.019 111.6C224.139 110.667 223.459 109.533 222.979 108.2C222.499 106.867 222.259 105.36 222.259 103.68C222.259 102 222.499 100.493 222.979 99.16C223.459 97.8267 224.139 96.6933 225.019 95.76C225.926 94.8267 227.019 94.12 228.299 93.64C229.606 93.1333 231.059 92.88 232.659 92.88C234.926 92.88 236.739 93.3467 238.099 94.28C239.486 95.1867 240.539 96.4 241.259 97.92L236.699 100.4C236.326 99.6 235.833 98.9333 235.219 98.4C234.633 97.8667 233.779 97.6 232.659 97.6C231.299 97.6 230.246 98 229.499 98.8C228.779 99.5733 228.419 100.64 228.419 102V105.36C228.419 106.72 228.779 107.8 229.499 108.6C230.246 109.373 231.326 109.76 232.739 109.76C233.886 109.76 234.779 109.493 235.419 108.96C236.086 108.427 236.646 107.733 237.099 106.88L241.579 109.44C240.833 110.96 239.739 112.187 238.299 113.12C236.886 114.027 235.019 114.48 232.699 114.48ZM246.444 84.4H252.364V101.2H252.644L255.404 97.96L259.724 93.36H266.524L258.524 101.52L267.364 114H260.324L254.324 104.88L252.364 106.84V114H246.444V84.4ZM280.388 114.48C276.921 114.48 274.295 113.52 272.508 111.6C270.721 109.68 269.828 107.067 269.828 103.76C269.828 102.08 270.055 100.573 270.508 99.24C270.988 97.88 271.655 96.7333 272.508 95.8C273.388 94.84 274.441 94.12 275.668 93.64C276.921 93.1333 278.321 92.88 279.868 92.88C281.415 92.88 282.801 93.1333 284.028 93.64C285.255 94.12 286.295 94.8133 287.148 95.72C288.001 96.6267 288.655 97.7333 289.108 99.04C289.588 100.32 289.828 101.76 289.828 103.36V105.12H275.708V105.48C275.708 106.813 276.121 107.893 276.948 108.72C277.775 109.52 278.988 109.92 280.588 109.92C281.815 109.92 282.868 109.693 283.748 109.24C284.628 108.76 285.388 108.133 286.028 107.36L289.228 110.84C288.428 111.827 287.308 112.68 285.868 113.4C284.428 114.12 282.601 114.48 280.388 114.48ZM279.908 97.12C278.628 97.12 277.601 97.52 276.828 98.32C276.081 99.0933 275.708 100.147 275.708 101.48V101.8H284.028V101.48C284.028 100.12 283.655 99.0533 282.908 98.28C282.188 97.5067 281.188 97.12 279.908 97.12ZM294.773 109.4H299.533V97.96H294.773V93.36H305.453V99.2H305.733C305.919 98.4533 306.173 97.7333 306.493 97.04C306.839 96.32 307.266 95.6933 307.773 95.16C308.306 94.6 308.946 94.16 309.693 93.84C310.439 93.52 311.319 93.36 312.333 93.36H314.293V98.8H309.893C308.426 98.8 307.319 99.24 306.573 100.12C305.826 100.973 305.453 102.027 305.453 103.28V109.4H312.253V114H294.773V109.4Z" fill="#E0E1E1"/>
</g>
<defs>
<filter id="filter0_d_383_2905" x="0.560059" y="81.96" width="319.732" height="50.52" filterUnits="userSpaceOnUse" color-interpolation-filters="sRGB">
<feFlood flood-opacity="0" result="BackgroundImageFix"/>
<feColorMatrix in="SourceAlpha" type="matrix" values="0 0 0 0 0 0 0 0 0 0 0 0 0 0 0 0 0 0 127 0" result="hardAlpha"/>
<feOffset dy="4"/>
<feGaussianBlur stdDeviation="3"/>
<feComposite in2="hardAlpha" operator="out"/>
<feColorMatrix type="matrix" values="0 0 0 0 0 0 0 0 0 0 0 0 0 0 0 0 0 0 0.5 0"/>
<feBlend mode="normal" in2="BackgroundImageFix" result="effect1_dropShadow_383_2905"/>
<feBlend mode="normal" in="SourceGraphic" in2="effect1_dropShadow_383_2905" result="shape"/>
</filter>
</defs>
</svg>
