<svg width="21" height="21" viewBox="0 0 21 21" fill="none" xmlns="http://www.w3.org/2000/svg">
<path d="M18.6518 10.472L18.4893 9.29007L15.5057 9.69271L14.7815 7.36032C14.7675 7.31536 14.7553 7.27602 14.7413 7.23106L17.279 5.60508L16.6625 4.60723L14.2388 6.1547C13.8415 5.51203 13.315 4.9618 12.6948 4.54106C12.0746 4.12031 11.3751 3.83883 10.6433 3.71557L10.1198 2.0295L9.02299 2.37007L9.41215 3.62337C8.63708 3.67505 7.88652 3.9081 7.21849 4.3045L6.82934 3.0512L5.73252 3.39176L6.25604 5.07782C5.72201 5.59808 5.30562 6.23113 5.03516 6.93393C4.76471 7.63674 4.64652 8.39283 4.68865 9.15081L1.80597 9.22017L1.8905 10.3832L4.8699 10.2961L4.91003 10.4254L5.63424 12.7578L2.95276 14.1142L3.47727 15.1837L5.98849 13.8987C6.21636 14.5883 6.58166 15.224 7.06118 15.7655L5.36913 19.0884L6.39568 19.6447L7.9606 16.5707C8.61063 17.0346 9.35378 17.3424 10.1334 17.4708C10.9131 17.5991 11.7087 17.5447 12.4597 17.3115C13.2107 17.0783 13.8973 16.6726 14.4671 16.1252C15.037 15.5778 15.4751 14.9032 15.7481 14.1527L18.7788 15.7997L19.3098 14.7599L16.0277 12.9814C16.1183 12.2634 16.0611 11.532 15.8599 10.8336L18.6518 10.472ZM11.552 16.3245C10.5972 16.4729 9.61711 16.2648 8.79114 15.7382C7.96516 15.2117 7.34848 14.4019 7.0539 13.457L6.00686 10.0848L9.29734 9.06314L11.552 16.3245ZM5.81689 8.91141C5.8002 8.02554 6.06437 7.16183 6.57005 6.44896C7.07572 5.73609 7.79585 5.2122 8.62315 4.95532C9.45045 4.69845 10.3407 4.72233 11.1612 5.02342C11.9817 5.32451 12.6886 5.88669 13.1766 6.62623L5.81689 8.91141ZM14.7317 11.073C15.0241 12.0186 14.9745 13.0353 14.5921 13.937C14.2096 14.8388 13.5198 15.5654 12.6488 15.9839L10.3942 8.72258L13.6846 7.70089L14.7317 11.073Z" fill="#C64A49"/>
</svg>
