<svg width="64" height="76" viewBox="0 0 64 76" fill="none" xmlns="http://www.w3.org/2000/svg">
<path d="M48.3619 75.9999H15.6393C10.899 75.9999 7.02632 72.2556 6.7729 67.541L6.77202 67.5183L3.74291 12.9031H60.2572L57.2415 67.5285C56.9836 72.261 53.1139 76 48.3779 76H48.3611H48.362L48.3619 75.9999ZM9.05721 17.9699L11.7914 67.2447C11.8978 69.3034 13.5791 70.9323 15.638 70.9333H48.3584C50.4141 70.9325 52.0935 69.3092 52.2046 67.2648L52.2052 67.2548L54.9428 17.9698L9.05721 17.9699ZM64 17.9699H0V12.9032H64V17.9699ZM25.6 7.43193e-05H38.4C43.3202 0.00586337 47.3074 4.02495 47.3131 8.98438V17.9698H16.6869V8.9849C16.6926 4.02502 20.6796 0.00578905 25.5994 0H25.5999L25.6 7.43193e-05ZM42.2869 12.9032V8.98497C42.285 6.8218 40.5459 5.06868 38.4002 5.06675H25.6C23.4541 5.06861 21.715 6.82172 21.7131 8.98475V12.9031L42.2869 12.9032ZM34.5131 63.8062H29.4869V25.0969H34.5131V63.8062ZM47.3131 63.8062H42.2869V25.0969H47.3131V63.8062ZM21.7131 63.8062H16.6869V25.0969H21.7131V63.8062Z" fill="#E0E1E1"/>
</svg>
