<svg width="58" height="58" viewBox="0 0 58 58" fill="none" xmlns="http://www.w3.org/2000/svg">
<path d="M29 55C14.6406 55 3 43.3593 3 29C3 14.6406 14.6406 3 29 3C43.3593 3 55 14.6406 55 29C55 43.3593 43.3593 55 29 55Z" stroke="#6A5988" stroke-width="6" stroke-linecap="round" stroke-linejoin="round"/>
<path d="M40.5816 37.4414C40.5816 37.4414 37.1375 39.805 29.3375 39.805C21.5375 39.805 17.1816 37.4414 17.1816 37.4414" stroke="#6A5988" stroke-width="6" stroke-linecap="round" stroke-linejoin="round"/>
<path d="M20.2207 27.3116C19.4934 27.3116 15.8311 22.9883 15.8311 22.0129C15.8311 21.0374 19.4934 15.8311 20.2207 15.8311C20.948 15.8311 24.6103 21.0374 24.6103 22.0129C24.6103 22.9883 20.948 27.3116 20.2207 27.3116Z" fill="#6A5988"/>
<path d="M37.7793 27.3116C37.052 27.3116 33.3896 22.9883 33.3896 22.0129C33.3896 21.0374 37.052 15.8311 37.7793 15.8311C38.5065 15.8311 42.1689 21.0374 42.1689 22.0129C42.1689 22.9883 38.5065 27.3116 37.7793 27.3116Z" fill="#6A5988"/>
</svg>
