<svg width="46" height="48" viewBox="0 0 46 48" fill="none" xmlns="http://www.w3.org/2000/svg">
<rect x="25.738" y="3.86206" width="10.4048" height="4.41379" fill="#212121"/>
<rect x="31.7618" y="3.86206" width="4.38095" height="17.6552" fill="#212121"/>
<path d="M42.239 31.4063L43.6413 27.4937C43.876 26.8374 43.4242 26.1374 42.7612 26.1374H39.3288C39.9742 24.9561 40.3732 23.5999 40.3732 22.1373V22.1186C42.6732 21.631 44.1283 20.9248 44.1283 20.1373C44.1283 19.306 42.5265 18.5685 40.0153 18.0747C39.4755 16.0246 38.4311 13.9621 37.6331 12.8996C37.0757 12.1558 36.1135 11.9245 35.3155 12.3495L33.6961 13.2121C33.1681 13.4933 32.5461 13.4933 32.0181 13.2121L30.3987 12.3495C29.6007 11.9245 28.6385 12.1558 28.0811 12.8996C27.289 13.9621 26.2387 16.0246 25.6989 18.0747C23.1936 18.5685 21.5918 19.306 21.5918 20.1373C21.5918 20.9248 23.0469 21.631 25.3469 22.1186V22.1373C25.3469 23.5999 25.7459 24.9561 26.3913 26.1374H23.0175C22.3428 26.1374 21.891 26.8687 22.155 27.5312L23.6688 31.2938C21.316 32.7501 19.7142 35.4314 19.7142 38.5378V41.3379C19.7142 42.8817 20.8936 44.1379 22.3428 44.1379H43.3714C44.8206 44.1379 45.9999 42.8817 45.9999 41.3379V38.5378C45.9999 35.5127 44.4862 32.8876 42.239 31.4063ZM30.0408 42.1379L27.5999 30.1375L30.5102 32.1376L31.9183 34.6377L30.0408 42.1379ZM35.6734 42.1379L33.7959 34.6377L35.204 32.1376L38.1142 30.1375L35.6734 42.1379ZM38.1201 23.4811C37.8913 24.2249 37.7094 25.0186 37.152 25.5687C36.5594 26.1499 34.3357 26.9687 33.3969 24.0061C33.2326 23.4811 32.4933 23.4811 32.3232 24.0061C31.3257 27.1437 29.0374 26.0312 28.5681 25.5687C28.0107 25.0186 27.8229 24.2249 27.5999 23.4811C27.553 23.3248 27.2303 23.1248 27.2303 23.1186V22.4436C28.8908 22.6686 30.8094 22.8061 32.863 22.8061C34.9165 22.8061 36.8352 22.6748 38.4956 22.4436V23.1186C38.4897 23.1248 38.167 23.3186 38.1201 23.4811Z" fill="#6A5988"/>
<path d="M0 4.13793L17.7976 0L18.0714 4.13793L0 8.27586V4.13793Z" fill="#212121"/>
<path d="M17.7976 0H21.9048V48H17.7976V0Z" fill="#212121"/>
<path d="M0 6.62061H4.10714V44.6896H0V6.62061Z" fill="#212121"/>
<path d="M3.55952 41.3794L21.0833 44.6897L17.7976 48.0001L0 44.6897L3.55952 41.3794Z" fill="#212121"/>
<ellipse cx="14.5119" cy="24.2757" rx="1.36905" ry="2.2069" fill="#212121"/>
</svg>
