<svg width="33" height="40" viewBox="0 0 33 40" fill="none" xmlns="http://www.w3.org/2000/svg">
<path d="M28.2783 24.0855L30.0388 19.1947C30.3335 18.3744 29.7663 17.4994 28.9339 17.4994H24.6248C25.435 16.0228 25.9359 14.3274 25.9359 12.4992V12.4758C28.8234 11.8664 30.6502 10.9835 30.6502 9.99915C30.6502 8.96005 28.6393 8.03815 25.4866 7.42095C24.8089 4.85837 23.4978 2.28018 22.496 0.952013C21.7962 0.0222993 20.5882 -0.266771 19.5864 0.264494L17.5533 1.34265C16.8904 1.69422 16.1096 1.69422 15.4467 1.34265L13.4136 0.264494C12.4118 -0.266771 11.2038 0.0222993 10.504 0.952013C9.5096 2.28018 8.19107 4.85837 7.51339 7.42095C4.36808 8.03815 2.35714 8.96005 2.35714 9.99915C2.35714 10.9835 4.18393 11.8664 7.07143 12.4758V12.4992C7.07143 14.3274 7.57232 16.0228 8.38259 17.4994H4.1471C3.3 17.4994 2.73281 18.4134 3.06429 19.2416L4.96473 23.9449C2.01094 25.7652 0 29.1169 0 32.9998V36.4999C0 38.4296 1.48058 40 3.3 40H29.7C31.5194 40 33 38.4296 33 36.4999V32.9998C33 29.2184 31.0996 25.9371 28.2783 24.0855ZM12.9643 37.4999L9.9 22.4995L13.5536 24.9996L15.3214 28.1247L12.9643 37.4999ZM20.0357 37.4999L17.6786 28.1247L19.4464 24.9996L23.1 22.4995L20.0357 37.4999ZM23.1074 14.179C22.8201 15.1087 22.5917 16.1009 21.892 16.7884C21.148 17.515 18.3563 18.5385 17.1777 14.8352C16.9714 14.179 16.0433 14.179 15.8297 14.8352C14.5775 18.7572 11.7047 17.3665 11.1154 16.7884C10.4156 16.1009 10.1799 15.1087 9.9 14.179C9.84107 13.9836 9.43594 13.7336 9.43594 13.7258V12.882C11.5205 13.1633 13.9292 13.3352 16.5074 13.3352C19.0855 13.3352 21.4942 13.1711 23.5788 12.882V13.7258C23.5714 13.7336 23.1663 13.9758 23.1074 14.179Z" fill="#E0E1E1"/>
<path d="M18.0889 2.08304C18.239 1.9836 18.4426 1.92773 18.6548 1.92773C18.867 1.92773 19.0706 1.9836 19.2207 2.08304L22.4222 4.20485C22.5722 4.30433 22.6565 4.43922 22.6565 4.57988C22.6565 4.72054 22.5722 4.85544 22.4222 4.95491L19.2207 7.07672C19.0697 7.17335 18.8675 7.22681 18.6577 7.2256C18.4478 7.22439 18.2471 7.16861 18.0987 7.07026C17.9503 6.97191 17.8661 6.83886 17.8643 6.69978C17.8625 6.5607 17.9432 6.4267 18.0889 6.32666L19.9242 5.11033H10.6511C10.4388 5.11033 10.2352 5.05445 10.0851 4.95497C9.93503 4.85549 9.85071 4.72057 9.85071 4.57988C9.85071 4.4392 9.93503 4.30427 10.0851 4.2048C10.2352 4.10532 10.4388 4.04943 10.6511 4.04943H19.9242L18.0889 2.8331C17.9389 2.73363 17.8546 2.59873 17.8546 2.45807C17.8546 2.31742 17.9389 2.18252 18.0889 2.08304ZM14.4184 7.38756C14.5685 7.48704 14.6528 7.62194 14.6528 7.76259C14.6528 7.90325 14.5685 8.03815 14.4184 8.13762L12.5832 9.35395H21.8563C22.0686 9.35395 22.2722 9.40984 22.4223 9.50932C22.5724 9.60879 22.6567 9.74372 22.6567 9.8844C22.6567 10.0251 22.5724 10.16 22.4223 10.2595C22.2722 10.359 22.0686 10.4149 21.8563 10.4149H12.5832L14.4184 11.6312C14.5642 11.7312 14.6449 11.8652 14.6431 12.0043C14.6413 12.1434 14.5571 12.2764 14.4087 12.3748C14.2603 12.4731 14.0595 12.5289 13.8497 12.5301C13.6398 12.5313 13.4377 12.4779 13.2867 12.3812L10.0852 10.2594C9.93517 10.16 9.85088 10.0251 9.85088 9.8844C9.85088 9.74374 9.93517 9.60885 10.0852 9.50937L13.2867 7.38756C13.4368 7.28812 13.6403 7.23225 13.8526 7.23225C14.0648 7.23225 14.2683 7.28812 14.4184 7.38756Z" fill="#6A5988"/>
</svg>
