<svg width="32" height="28" viewBox="0 0 32 28" fill="none" xmlns="http://www.w3.org/2000/svg">
<path d="M13.9452 27.9727L10.8954 27.0047C10.5754 26.9062 10.3954 26.5398 10.4854 26.1898L17.3099 0.473784C17.3999 0.123758 17.7349 -0.0731322 18.0548 0.0253127L21.1046 0.993354C21.4246 1.0918 21.6046 1.45823 21.5146 1.80826L14.6901 27.5243C14.5951 27.8743 14.2651 28.0766 13.9452 27.9727ZM8.24561 21.8363L10.4204 19.2986C10.6504 19.0306 10.6354 18.6041 10.3804 18.3579L5.85079 13.999L10.3804 9.6401C10.6354 9.39399 10.6554 8.96739 10.4204 8.6994L8.24561 6.16171C8.02062 5.89919 7.64065 5.88278 7.39567 6.13437L0.191235 13.5177C-0.063745 13.7748 -0.063745 14.2178 0.191235 14.4748L7.39567 21.8637C7.64065 22.1153 8.02062 22.1043 8.24561 21.8363ZM24.6043 21.8691L31.8088 14.4803C32.0637 14.2233 32.0637 13.7803 31.8088 13.5232L24.6043 6.1289C24.3643 5.88278 23.9844 5.89372 23.7544 6.15624L21.5796 8.69393C21.3496 8.96192 21.3646 9.38852 21.6196 9.63463L26.1492 13.999L21.6196 18.3579C21.3646 18.6041 21.3446 19.0306 21.5796 19.2986L23.7544 21.8363C23.9794 22.1043 24.3593 22.1153 24.6043 21.8691Z" fill="#E0E1E1"/>
</svg>
