<svg width="36" height="36" viewBox="0 0 36 36" fill="none" xmlns="http://www.w3.org/2000/svg">
<path fill-rule="evenodd" clip-rule="evenodd" d="M25.2 0C25.6774 0 26.1352 0.189642 26.4728 0.527208L35.4728 9.52721C35.8104 9.86477 36 10.3226 36 10.8V23.4C36 23.8211 35.8524 24.2288 35.5828 24.5523L26.5828 35.3523C26.2408 35.7627 25.7342 36 25.2 36H10.8C10.3226 36 9.86477 35.8104 9.52721 35.4728L0.527208 26.4728C0.189642 26.1352 0 25.6774 0 25.2V10.8C0 10.3226 0.189642 9.86477 0.527208 9.52721L9.52721 0.527208C9.86477 0.189642 10.3226 0 10.8 0H25.2ZM24.4544 3.6H11.5456L3.6 11.5456V24.4544L11.5456 32.4H24.3569L32.4 22.7483V11.5456L24.4544 3.6ZM18 25.2C18.9941 25.2 19.8 26.0059 19.8 27C19.8 27.9941 18.9941 28.8 18 28.8C17.0059 28.8 16.2 27.9941 16.2 27C16.2 26.0059 17.0059 25.2 18 25.2ZM18 7.2C18.9941 7.2 19.8 8.00589 19.8 9V19.8C19.8 20.7941 18.9941 21.6 18 21.6C17.0059 21.6 16.2 20.7941 16.2 19.8V9C16.2 8.00589 17.0059 7.2 18 7.2Z" fill="#E0E1E1"/>
<path d="M17.1976 26.9461L18.1644 26.0747L15.9716 23.6296L17.6319 21.546C17.6639 21.5058 17.6919 21.4706 17.7239 21.4305L20.7471 22.7231L21.2694 21.555L18.3869 20.317C18.7232 19.5645 18.8968 18.7521 18.8961 17.9345C18.8955 17.1169 18.7205 16.3132 18.383 15.5774L19.5833 14.0711L18.6035 13.2903L17.7113 14.41C17.1894 13.7423 16.5189 13.208 15.7516 12.8484L16.6438 11.7287L15.664 10.9479L14.4637 12.4541C13.6668 12.2913 12.8403 12.3038 12.0404 12.4907C11.2404 12.6776 10.4857 13.0346 9.82767 13.5374L7.99749 10.979L6.99996 11.7684L8.90542 14.4033L8.8134 14.5187L7.15304 16.6023L4.28499 15.0146L3.64158 16.1437L6.34086 17.6216C5.85835 18.25 5.50875 18.9694 5.31427 19.7341L1.27854 20.245L1.4061 21.5123L5.13923 21.0394C5.1193 21.9103 5.29724 22.7696 5.6595 23.5518C6.02175 24.3339 6.55878 25.0184 7.22967 25.553C7.90056 26.0876 8.68763 26.4583 9.53094 26.6368C10.3742 26.8153 11.2516 26.7969 12.0961 26.5831L12.4684 30.3276L13.7323 30.169L13.3244 26.1171C14.0278 25.7586 14.6527 25.2585 15.1594 24.6488L17.1976 26.9461ZM7.5636 24.1287C6.84421 23.3583 6.43103 22.3464 6.39965 21.2783C6.36827 20.2101 6.72079 19.1572 7.39271 18.312L9.79324 15.2995L12.7327 17.6419L7.5636 24.1287ZM10.7355 14.4086C11.5246 13.8503 12.4658 13.5591 13.4191 13.5782C14.3724 13.5974 15.2866 13.9259 16.0257 14.5148C16.7648 15.1037 17.2891 15.9216 17.5205 16.8465C17.752 17.7715 17.6782 18.754 17.3102 19.6478L10.7355 14.4086ZM14.2516 23.7776C13.5777 24.6212 12.63 25.1999 11.5818 25.4078C10.5337 25.6156 9.45508 25.4388 8.54344 24.9095L13.7126 18.4227L16.6521 20.7652L14.2516 23.7776Z" fill="#C64A49"/>
</svg>
