<svg width="33" height="33" viewBox="0 0 33 33" fill="none" xmlns="http://www.w3.org/2000/svg">
<path d="M29.0866 18.0338C29.1571 17.5443 29.1923 17.0385 29.1923 16.5001C29.1923 15.978 29.1571 15.4559 29.0689 14.9664L32.6475 12.3885C32.9648 12.1601 33.0529 11.7195 32.859 11.3932L29.4744 5.97639C29.2629 5.61744 28.8222 5.50323 28.4343 5.61744L24.2212 7.18376C23.3398 6.56376 22.4055 6.04165 21.3654 5.65007L20.7308 1.50586C20.6603 1.11428 20.3077 0.836914 19.8847 0.836914H13.1154C12.6923 0.836914 12.3574 1.11428 12.2869 1.50586L11.6523 5.65007C10.6122 6.04165 9.66029 6.58007 8.79651 7.18376L4.58337 5.61744C4.19555 5.48691 3.75484 5.61744 3.54331 5.97639L0.176319 11.3932C-0.0352195 11.7359 0.0352931 12.1601 0.387857 12.3885L3.96638 14.9664C3.87824 15.4559 3.80773 15.9943 3.80773 16.5001C3.80773 17.0059 3.84299 17.5443 3.93113 18.0338L0.352601 20.6117C0.0352932 20.8401 -0.0528477 21.2806 0.141063 21.6069L3.52568 27.0238C3.73722 27.3827 4.17792 27.4969 4.56574 27.3827L8.77888 25.8164C9.66029 26.4364 10.5946 26.9585 11.6347 27.3501L12.2693 31.4943C12.3574 31.8859 12.6923 32.1632 13.1154 32.1632H19.8847C20.3077 32.1632 20.6603 31.8859 20.7132 31.4943L21.3478 27.3501C22.3879 26.9585 23.3398 26.4364 24.2036 25.8164L28.4167 27.3827C28.8045 27.5132 29.2452 27.3827 29.4568 27.0238L32.8414 21.6069C33.0529 21.248 32.9648 20.8401 32.6298 20.6117L29.0866 18.0338ZM16.5 22.3738C13.0097 22.3738 10.1539 19.7306 10.1539 16.5001C10.1539 13.2695 13.0097 10.6264 16.5 10.6264C19.9904 10.6264 22.8462 13.2695 22.8462 16.5001C22.8462 19.7306 19.9904 22.3738 16.5 22.3738Z" fill="#E0E1E1"/>
</svg>
