<svg width="33" height="37" viewBox="0 0 33 37" fill="none" xmlns="http://www.w3.org/2000/svg">
<rect x="18.7164" y="1.7832" width="7.46429" height="2.82842" fill="#464646"/>
<rect x="23.0378" y="1.7832" width="3.14286" height="11.3137" fill="#464646"/>
<path d="M30.1107 23.6837L31.188 20.4134C31.3683 19.8649 31.0212 19.2797 30.5119 19.2797H27.8749C28.3708 18.2924 28.6773 17.1587 28.6773 15.9363V15.9206C30.4443 15.5131 31.5621 14.9228 31.5621 14.2645C31.5621 13.5697 30.3316 12.9533 28.4023 12.5406C27.9876 10.827 27.1853 9.10307 26.5722 8.21496C26.144 7.59328 25.4048 7.39999 24.7917 7.75523L23.5476 8.47616C23.1419 8.71125 22.6641 8.71125 22.2585 8.47616L21.0144 7.75523C20.4013 7.39999 19.6621 7.59328 19.2339 8.21496C18.6253 9.10307 17.8185 10.827 17.4038 12.5406C15.479 12.9533 14.2485 13.5697 14.2485 14.2645C14.2485 14.9228 15.3663 15.5131 17.1333 15.9206V15.9363C17.1333 17.1587 17.4398 18.2924 17.9357 19.2797H15.3438C14.8254 19.2797 14.4783 19.891 14.6812 20.4447L15.8442 23.5897C14.0366 24.8069 12.806 27.0481 12.806 29.6445V31.9849C12.806 33.2753 13.7121 34.3254 14.8254 34.3254H30.9807C32.094 34.3254 33.0001 33.2753 33.0001 31.9849V29.6445C33.0001 27.116 31.8371 24.9219 30.1107 23.6837ZM20.7394 32.6536L18.8642 22.6232L21.1 24.295L22.1818 26.3846L20.7394 32.6536ZM25.0667 32.6536L23.6243 26.3846L24.7061 24.295L26.9419 22.6232L25.0667 32.6536ZM26.9464 17.0595C26.7706 17.6812 26.6308 18.3446 26.2026 18.8043C25.7473 19.2902 24.039 19.9746 23.3177 17.4983C23.1915 17.0595 22.6236 17.0595 22.4929 17.4983C21.7266 20.1208 19.9686 19.1909 19.608 18.8043C19.1798 18.3446 19.0355 17.6812 18.8642 17.0595C18.8282 16.9289 18.5803 16.7617 18.5803 16.7565V16.1923C19.8559 16.3803 21.3299 16.4953 22.9076 16.4953C24.4852 16.4953 25.9592 16.3856 27.2348 16.1923V16.7565C27.2303 16.7617 26.9824 16.9236 26.9464 17.0595Z" fill="#E0E1E1"/>
<path d="M0 3.18966L12.7679 0L12.9643 3.18966L0 6.37931V3.18966Z" fill="#464646"/>
<path d="M12.7678 0H15.7143V37H12.7678V0Z" fill="#464646"/>
<path d="M0 5.10352H2.94643V34.4483H0V5.10352Z" fill="#464646"/>
<path d="M2.55357 31.8965L15.125 34.4482L12.7679 36.9999L0 34.4482L2.55357 31.8965Z" fill="#464646"/>
<ellipse cx="10.4107" cy="18.7126" rx="0.982143" ry="1.70115" fill="#464646"/>
</svg>
