<svg width="33" height="33" viewBox="0 0 33 33" fill="none" xmlns="http://www.w3.org/2000/svg">
<path fill-rule="evenodd" clip-rule="evenodd" d="M23.1 0C23.5376 0 23.9573 0.173839 24.2667 0.483274L32.5167 8.73327C32.8262 9.04271 33 9.46239 33 9.9V21.45C33 21.836 32.8647 22.2098 32.6176 22.5063L24.3676 32.4063C24.0541 32.7825 23.5897 33 23.1 33H9.9C9.46239 33 9.04271 32.8262 8.73327 32.5167L0.483274 24.2667C0.173839 23.9573 0 23.5376 0 23.1V9.9C0 9.46239 0.173839 9.04271 0.483274 8.73327L8.73327 0.483274C9.04271 0.173839 9.46239 0 9.9 0H23.1ZM22.4165 3.3H10.5835L3.3 10.5835V22.4165L10.5835 29.7H22.3272L29.7 20.8526V10.5835L22.4165 3.3ZM16.5 23.1C17.4113 23.1 18.15 23.8387 18.15 24.75C18.15 25.6613 17.4113 26.4 16.5 26.4C15.5887 26.4 14.85 25.6613 14.85 24.75C14.85 23.8387 15.5887 23.1 16.5 23.1ZM16.5 6.6C17.4113 6.6 18.15 7.33873 18.15 8.25V18.15C18.15 19.0613 17.4113 19.8 16.5 19.8C15.5887 19.8 14.85 19.0613 14.85 18.15V8.25C14.85 7.33873 15.5887 6.6 16.5 6.6Z" fill="#E0E1E1"/>
<path d="M15.7644 24.7006L16.6506 23.9018L14.6405 21.6604L16.1625 19.7505C16.1918 19.7136 16.2175 19.6814 16.2469 19.6446L19.018 20.8295L19.4968 19.7587L16.8546 18.6239C17.1628 17.9341 17.322 17.1894 17.3214 16.4399C17.3208 15.6905 17.1604 14.9537 16.851 14.2792L17.9513 12.8985L17.0531 12.1828L16.2352 13.2091C15.7569 12.5971 15.1422 12.1074 14.4389 11.7777L15.2567 10.7513L14.3585 10.0356L13.2583 11.4163C12.5278 11.267 11.7702 11.2785 11.0369 11.4498C10.3036 11.6212 9.61184 11.9484 9.00861 12.4093L7.33094 10.0641L6.41653 10.7877L8.16321 13.203L8.07886 13.3088L6.55686 15.2188L3.92781 13.7634L3.33802 14.7984L5.81236 16.1531C5.37006 16.7292 5.04959 17.3887 4.87133 18.0896L1.17191 18.5579L1.28883 19.7196L4.71087 19.2861C4.6926 20.0844 4.85571 20.8721 5.18778 21.5891C5.51985 22.3061 6.01212 22.9335 6.6271 23.4236C7.24209 23.9137 7.96357 24.2534 8.7366 24.4171C9.50963 24.5807 10.3138 24.5638 11.088 24.3678L11.4293 27.8003L12.5878 27.6549L12.214 23.9407C12.8587 23.6121 13.4315 23.1537 13.896 22.5947L15.7644 24.7006ZM6.93321 22.118C6.27377 21.4117 5.89502 20.4842 5.86626 19.5051C5.83749 18.526 6.16063 17.5607 6.77656 16.786L8.97704 14.0246L11.6716 16.1718L6.93321 22.118ZM9.84078 13.2079C10.5641 12.6961 11.4269 12.4292 12.3008 12.4467C13.1746 12.4642 14.0127 12.7654 14.6901 13.3052C15.3676 13.8451 15.8482 14.5948 16.0604 15.4427C16.2726 16.2905 16.2049 17.1912 15.8676 18.0105L9.84078 13.2079ZM13.0638 21.7961C12.4461 22.5695 11.5774 23.0999 10.6166 23.2905C9.65575 23.481 8.66707 23.3189 7.83139 22.8338L12.5698 16.8875L15.2643 19.0347L13.0638 21.7961Z" fill="#C64A49"/>
</svg>
