<svg width="120" height="106" viewBox="0 0 120 106" fill="none" xmlns="http://www.w3.org/2000/svg">
<path d="M61.6982 70.1807L65.5393 59.3819C66.1821 57.5706 64.9446 55.6386 63.1286 55.6386H53.7268C55.4946 52.3782 56.5875 48.6349 56.5875 44.5983V44.5465C62.8875 43.201 66.8732 41.2517 66.8732 39.0781C66.8732 36.7838 62.4857 34.7482 55.6071 33.3855C54.1286 27.7273 51.2679 22.0346 49.0821 19.102C47.5554 17.0492 44.9196 16.411 42.7339 17.584L38.2982 19.9646C36.8518 20.7408 35.1482 20.7408 33.7018 19.9646L29.2661 17.584C27.0804 16.411 24.4446 17.0492 22.9179 19.102C20.7482 22.0346 17.8714 27.7273 16.3929 33.3855C9.53036 34.7482 5.14286 36.7838 5.14286 39.0781C5.14286 41.2517 9.12857 43.201 15.4286 44.5465V44.5983C15.4286 48.6349 16.5214 52.3782 18.2893 55.6386H9.04821C7.2 55.6386 5.9625 57.6569 6.68571 59.4854L10.8321 69.8702C4.3875 73.8896 0 81.2901 0 89.8636V97.5918C0 101.853 3.23036 105.32 7.2 105.32H64.8C68.7696 105.32 72 101.853 72 97.5918V89.8636C72 81.5143 67.8536 74.2691 61.6982 70.1807ZM28.2857 99.7998L21.6 66.6789L29.5714 72.1991L33.4286 79.0993L28.2857 99.7998ZM43.7143 99.7998L38.5714 79.0993L42.4286 72.1991L50.4 66.6789L43.7143 99.7998ZM50.4161 48.3071C49.7893 50.3599 49.2911 52.5507 47.7643 54.0688C46.1411 55.6731 40.05 57.9329 37.4786 49.7562C37.0286 48.3071 35.0036 48.3071 34.5375 49.7562C31.8054 58.4159 25.5375 55.3453 24.2518 54.0688C22.725 52.5507 22.2107 50.3599 21.6 48.3071C21.4714 47.8759 20.5875 47.3239 20.5875 47.3066V45.4435C25.1357 46.0646 30.3911 46.4441 36.0161 46.4441C41.6411 46.4441 46.8964 46.0818 51.4446 45.4435V47.3066C51.4286 47.3239 50.5446 47.8586 50.4161 48.3071Z" fill="#212121"/>
<path d="M85.5045 16.8929C83.8453 16.8929 82.5049 18.2654 82.5049 19.9643C82.5049 21.6632 83.8453 23.0357 85.5045 23.0357C87.1636 23.0357 88.5041 21.6632 88.5041 19.9643C88.5041 18.2654 87.1636 16.8929 85.5045 16.8929ZM96.0031 16.8929C94.344 16.8929 93.0035 18.2654 93.0035 19.9643C93.0035 21.6632 94.344 23.0357 96.0031 23.0357C97.6623 23.0357 99.0027 21.6632 99.0027 19.9643C99.0027 18.2654 97.6623 16.8929 96.0031 16.8929ZM106.502 16.8929C104.843 16.8929 103.502 18.2654 103.502 19.9643C103.502 21.6632 104.843 23.0357 106.502 23.0357C108.161 23.0357 109.501 21.6632 109.501 19.9643C109.501 18.2654 108.161 16.8929 106.502 16.8929ZM96.0031 0C82.7486 0 72.0062 8.93594 72.0062 19.9643C72.0062 24.533 73.8716 28.7179 76.965 32.0868C75.5683 35.8685 72.6624 39.0743 72.6155 39.1127C71.9968 39.7846 71.8281 40.7636 72.1843 41.6083C72.5405 42.4529 73.356 43 74.2559 43C80.0208 43 84.5671 40.5333 87.2949 38.556C90.0039 39.4295 92.9285 39.9286 96.0031 39.9286C109.258 39.9286 120 30.9926 120 19.9643C120 8.93594 109.258 0 96.0031 0ZM96.0031 35.3214C93.5003 35.3214 91.0256 34.9279 88.6541 34.16L86.5262 33.469L84.6983 34.7935C83.3579 35.7629 81.5206 36.8475 79.3084 37.577C79.9927 36.4156 80.6582 35.1103 81.1738 33.7185L82.1674 31.0214L80.2364 28.929C78.5397 27.0766 76.5056 24.0147 76.5056 19.9643C76.5056 11.4987 85.2514 4.60714 96.0031 4.60714C106.755 4.60714 115.501 11.4987 115.501 19.9643C115.501 28.4299 106.755 35.3214 96.0031 35.3214Z" fill="#A1A1A1"/>
</svg>
