<svg width="78" height="77" viewBox="0 0 78 77" fill="none" xmlns="http://www.w3.org/2000/svg">
<path d="M68.6583 42.16C68.825 40.96 68.9083 39.72 68.9083 38.4C68.9083 37.12 68.825 35.84 68.6167 34.64L77.075 28.32C77.825 27.76 78.0333 26.68 77.575 25.88L69.575 12.6C69.075 11.72 68.0333 11.44 67.1167 11.72L57.1583 15.56C55.075 14.04 52.8667 12.76 50.4083 11.8L48.9083 1.64C48.7417 0.679999 47.9083 0 46.9083 0H30.9083C29.9083 0 29.1167 0.679999 28.95 1.64L27.45 11.8C24.9917 12.76 22.7417 14.08 20.7 15.56L10.7417 11.72C9.825 11.4 8.78333 11.72 8.28333 12.6L0.325001 25.88C-0.174999 26.72 -0.00833236 27.76 0.825001 28.32L9.28333 34.64C9.075 35.84 8.90834 37.16 8.90834 38.4C8.90834 39.64 8.99167 40.96 9.2 42.16L0.741668 48.48C-0.00833229 49.04 -0.216665 50.12 0.241668 50.92L8.24167 64.2C8.74167 65.08 9.78333 65.36 10.7 65.08L20.6583 61.24C22.7417 62.76 24.95 64.04 27.4083 65L28.9083 75.16C29.1167 76.12 29.9083 76.8 30.9083 76.8H46.9083C47.9083 76.8 48.7417 76.12 48.8667 75.16L50.3667 65C52.825 64.04 55.075 62.76 57.1167 61.24L67.075 65.08C67.9917 65.4 69.0333 65.08 69.5333 64.2L77.5333 50.92C78.0333 50.04 77.825 49.04 77.0333 48.48L68.6583 42.16ZM38.9083 52.8C30.6583 52.8 23.9083 46.32 23.9083 38.4C23.9083 30.48 30.6583 24 38.9083 24C47.1583 24 53.9083 30.48 53.9083 38.4C53.9083 46.32 47.1583 52.8 38.9083 52.8Z" fill="#E0E1E1"/>
</svg>
