<svg width="56" height="56" viewBox="0 0 56 56" fill="none" xmlns="http://www.w3.org/2000/svg">
<circle cx="28" cy="28" r="28" fill="#C64A49"/>
<path d="M37.4676 50.8181H18.2059C15.4156 50.8181 13.1359 48.5608 12.9868 45.7185L12.9863 45.7048L11.2032 12.7789H44.4696L42.6944 45.7109C42.5426 48.5641 40.2648 50.8182 37.477 50.8182H37.4671H37.4676L37.4676 50.8181ZM14.3314 15.8336L15.9409 45.5399C16.0035 46.781 16.9931 47.763 18.2051 47.7636H37.4655C38.6756 47.7631 39.6641 46.7845 39.7296 45.552L39.7299 45.546L41.3413 15.8335L14.3314 15.8336ZM46.6727 15.8336H9V12.779H46.6727V15.8336ZM24.0691 5.00004H31.6036C34.4999 5.00353 36.8468 7.42652 36.8502 10.4164V15.8335H18.8225V10.4167C18.8259 7.42657 21.1728 5.00349 24.0688 5H24.0691L24.0691 5.00004ZM33.8916 12.779V10.4168C33.8905 9.11266 32.8668 8.05576 31.6038 8.0546H24.0691C22.8059 8.05571 21.7822 9.11262 21.7811 10.4166V12.7789L33.8916 12.779ZM29.3156 43.4669H26.357V20.1302H29.3156V43.4669ZM36.8502 43.4669H33.8916V20.1302H36.8502V43.4669ZM21.7811 43.4669H18.8225V20.1302H21.7811V43.4669Z" fill="#E0E1E1"/>
</svg>
