<svg width="62" height="62" viewBox="0 0 62 62" fill="none" xmlns="http://www.w3.org/2000/svg">
<path d="M31 0C13.875 0 0 13.875 0 31C0 48.125 13.875 62 31 62C48.125 62 62 48.125 62 31C62 13.875 48.125 0 31 0ZM37.5875 11.625C38.6875 9.725 41.125 9.0625 43.025 10.1625C44.9375 11.2625 45.5875 13.7 44.4875 15.6125C43.3875 17.5125 40.95 18.175 39.05 17.075C37.1375 15.9625 36.4875 13.525 37.5875 11.625ZM10.925 34.9875C8.725 34.9875 6.9375 33.2 6.9375 31C6.9375 28.8 8.725 27.0125 10.925 27.0125C13.125 27.0125 14.9125 28.8 14.9125 31C14.9125 33.2 13.125 34.9875 10.925 34.9875ZM14.4375 35.375C17.225 33.1375 17.2375 28.8875 14.4375 26.6375C15.5125 22.5375 18.075 19.05 21.5 16.75L24.4625 21.7C18.025 26.2375 18.025 35.7625 24.4625 40.3L21.5 45.25C18.075 42.9625 15.525 39.4625 14.4375 35.375ZM43.025 51.8375C41.1125 52.9375 38.6875 52.2875 37.5875 50.375C36.4875 48.4625 37.1375 46.025 39.05 44.925C40.95 43.825 43.3875 44.475 44.4875 46.3875C45.5875 48.3 44.9375 50.7375 43.025 51.8375ZM43.0625 43.15C39.725 41.8625 36.05 43.975 35.5 47.525C34.85 47.7 29.3875 49.3125 23.4125 46.35L26.225 41.3125C33.35 44.625 41.65 39.85 42.3375 32.0125L48.1 32.1C47.8125 36.4125 45.9375 40.2875 43.0625 43.15ZM42.325 29.9875C41.65 22.2375 33.4125 17.3375 26.2125 20.6875L23.4 15.65C29.3875 12.6875 34.8375 14.3 35.4875 14.475C36.0375 18.0125 39.7125 20.1375 43.05 18.85C45.9375 21.7125 47.8 25.5875 48.075 29.9125L42.325 29.9875Z" fill="#C64A49"/>
</svg>
