<svg width="119" height="107" viewBox="0 0 119 107" fill="none" xmlns="http://www.w3.org/2000/svg">
<path d="M61.6982 71.1807L65.5393 60.3819C66.1821 58.5706 64.9446 56.6386 63.1286 56.6386H53.7268C55.4946 53.3782 56.5875 49.6349 56.5875 45.5983V45.5465C62.8875 44.201 66.8732 42.2517 66.8732 40.0781C66.8732 37.7838 62.4857 35.7482 55.6071 34.3855C54.1286 28.7273 51.2679 23.0346 49.0821 20.102C47.5554 18.0492 44.9196 17.411 42.7339 18.584L38.2982 20.9646C36.8518 21.7408 35.1482 21.7408 33.7018 20.9646L29.2661 18.584C27.0804 17.411 24.4446 18.0492 22.9179 20.102C20.7482 23.0346 17.8714 28.7273 16.3929 34.3855C9.53036 35.7482 5.14286 37.7838 5.14286 40.0781C5.14286 42.2517 9.12857 44.201 15.4286 45.5465V45.5983C15.4286 49.6349 16.5214 53.3782 18.2893 56.6386H9.04821C7.2 56.6386 5.9625 58.6569 6.68571 60.4854L10.8321 70.8702C4.3875 74.8896 0 82.2901 0 90.8636V98.5918C0 102.853 3.23036 106.32 7.2 106.32H64.8C68.7696 106.32 72 102.853 72 98.5918V90.8636C72 82.5143 67.8536 75.2691 61.6982 71.1807ZM28.2857 100.8L21.6 67.6789L29.5714 73.1991L33.4286 80.0993L28.2857 100.8ZM43.7143 100.8L38.5714 80.0993L42.4286 73.1991L50.4 67.6789L43.7143 100.8ZM50.4161 49.3071C49.7893 51.3599 49.2911 53.5507 47.7643 55.0688C46.1411 56.6731 40.05 58.9329 37.4786 50.7562C37.0286 49.3071 35.0036 49.3071 34.5375 50.7562C31.8054 59.4159 25.5375 56.3453 24.2518 55.0688C22.725 53.5507 22.2107 51.3599 21.6 49.3071C21.4714 48.8759 20.5875 48.3239 20.5875 48.3066V46.4435C25.1357 47.0646 30.3911 47.4441 36.0161 47.4441C41.6411 47.4441 46.8964 47.0818 51.4446 46.4435V48.3066C51.4286 48.3239 50.5446 48.8586 50.4161 49.3071Z" fill="#E0E1E1"/>
<path d="M113.469 22.5073C113.569 21.8667 113.62 21.2047 113.62 20.5C113.62 19.8167 113.569 19.1333 113.443 18.4927L118.552 15.1187C119.005 14.8198 119.131 14.2432 118.854 13.8161L114.022 6.72656C113.72 6.25677 113.091 6.10729 112.537 6.25677L106.523 8.30677C105.264 7.49531 103.931 6.81198 102.446 6.29948L101.54 0.875521C101.439 0.363021 100.936 0 100.332 0H90.6681C90.0641 0 89.586 0.363021 89.4853 0.875521L88.5794 6.29948C87.0946 6.81198 85.7356 7.51667 84.5025 8.30677L78.4878 6.25677C77.9341 6.08594 77.305 6.25677 77.003 6.72656L72.1963 13.8161C71.8943 14.2646 71.995 14.8198 72.4983 15.1187L77.607 18.4927C77.4812 19.1333 77.3805 19.838 77.3805 20.5C77.3805 21.162 77.4308 21.8667 77.5566 22.5073L72.448 25.8813C71.995 26.1802 71.8691 26.7568 72.146 27.1839L76.9778 34.2734C77.2798 34.7432 77.909 34.8927 78.4626 34.7432L84.4773 32.6932C85.7356 33.5047 87.0694 34.188 88.5542 34.7005L89.4602 40.1245C89.586 40.637 90.0641 41 90.6681 41H100.332C100.936 41 101.439 40.637 101.515 40.1245L102.421 34.7005C103.905 34.188 105.264 33.5047 106.498 32.6932L112.512 34.7432C113.066 34.9141 113.695 34.7432 113.997 34.2734L118.829 27.1839C119.131 26.7141 119.005 26.1802 118.527 25.8813L113.469 22.5073ZM95.5 28.1875C90.5171 28.1875 86.4402 24.7281 86.4402 20.5C86.4402 16.2719 90.5171 12.8125 95.5 12.8125C100.483 12.8125 104.56 16.2719 104.56 20.5C104.56 24.7281 100.483 28.1875 95.5 28.1875Z" fill="#E0E1E1"/>
</svg>
