<svg width="33" height="31" viewBox="0 0 33 31" fill="none" xmlns="http://www.w3.org/2000/svg">
<path d="M16.2955 31C15.7924 30.9994 15.301 30.8505 14.8854 30.5726C8.7287 26.4789 6.0628 23.672 4.59236 21.9172C1.45877 18.1765 -0.0414335 14.336 0.000869898 10.1771C0.0502239 5.4112 3.95389 1.53467 8.70284 1.53467C12.1561 1.53467 14.5478 3.43994 15.9406 5.02677C15.9848 5.07653 16.0393 5.11643 16.1005 5.14378C16.1617 5.17112 16.2282 5.18528 16.2955 5.18528C16.3628 5.18528 16.4293 5.17112 16.4905 5.14378C16.5518 5.11643 16.6063 5.07653 16.6504 5.02677C18.0433 3.43841 20.435 1.53467 23.8882 1.53467C28.6372 1.53467 32.5408 5.4112 32.5902 10.1778C32.6325 14.3375 31.1307 18.178 27.9987 21.9179C26.5283 23.6728 23.8624 26.4797 17.7056 30.5734C17.29 30.851 16.7986 30.9996 16.2955 31Z" fill="#C64A49"/>
<path d="M25.8469 18.0682L26.6434 17.3792L24.8727 15.4058L26.2454 13.753C26.2719 13.7212 26.295 13.6933 26.3215 13.6614L28.7795 14.7198L29.2155 13.7899L26.8719 12.7763C27.1526 12.1772 27.301 11.5289 27.3071 10.8751C27.3132 10.2212 27.1768 9.57701 26.9072 8.98581L27.8996 7.791L27.1058 7.15858L26.3682 8.04672C25.9475 7.50853 25.4043 7.07576 24.7807 6.78187L25.5183 5.89373L24.7246 5.2613L23.7322 6.45611C23.0829 6.3194 22.4079 6.32264 21.7532 6.46561C21.0984 6.60859 20.4793 6.88793 19.9379 7.28467L18.4642 5.22369L17.6432 5.84689L19.1778 7.9696L19.1017 8.0612L17.729 9.71401L15.4 8.42089L14.8654 9.31861L17.0575 10.5225C16.6584 11.0212 16.3671 11.5937 16.2021 12.2036L12.9025 12.5793L12.9964 13.5939L16.0486 13.2461C16.0252 13.9424 16.1635 14.6311 16.453 15.2596C16.7424 15.8881 17.1754 16.4398 17.7189 16.8729C18.2623 17.3059 18.902 17.6087 19.5892 17.7584C20.2763 17.908 20.9928 17.9004 21.6842 17.7363L21.9578 20.734L22.9911 20.6174L22.691 17.3737C23.2682 17.0927 23.7825 16.6978 24.2012 16.2143L25.8469 18.0682ZM18.0031 15.7365C17.4219 15.1145 17.0928 14.3019 17.0758 13.4474C17.0589 12.5929 17.3553 11.7537 17.9108 11.0832L19.8954 8.69362L22.2767 10.5909L18.0031 15.7365ZM20.6721 7.98879C21.3209 7.54875 22.0919 7.3235 22.8701 7.34657C23.6484 7.36964 24.3923 7.63981 24.991 8.11682C25.5897 8.59384 26.0111 9.25219 26.1926 9.99379C26.3741 10.7354 26.3059 11.5206 25.9981 12.2324L20.6721 7.98879ZM23.467 15.5102C22.9099 16.1794 22.1314 16.6345 21.2738 16.7922C20.4162 16.9499 19.537 16.7996 18.7968 16.369L23.0704 11.2233L25.4517 13.1206L23.467 15.5102Z" fill="#FFFEFE"/>
</svg>
