<svg width="168" height="125" viewBox="0 0 168 125" fill="none" xmlns="http://www.w3.org/2000/svg">
<path d="M57.6672 90.6436L61.2574 80.2498C61.8582 78.5064 60.7016 76.6468 59.0041 76.6468H50.2166C51.869 73.5087 52.8904 69.9057 52.8904 66.0204V65.9706C58.7788 64.6755 62.5041 62.7993 62.5041 60.7073C62.5041 58.499 58.4033 56.5398 51.9741 55.2281C50.5921 49.7821 47.9183 44.3029 45.8754 41.4803C44.4484 39.5044 41.9849 38.8901 39.942 40.0191L35.796 42.3104C34.4441 43.0576 32.8518 43.0576 31.4999 42.3104L27.354 40.0191C25.3111 38.8901 22.8476 39.5044 21.4205 41.4803C19.3927 44.3029 16.7038 49.7821 15.3218 55.2281C8.9077 56.5398 4.80685 58.499 4.80685 60.7073C4.80685 62.7993 8.53217 64.6755 14.4206 65.9706V66.0204C14.4206 69.9057 15.442 73.5087 17.0944 76.6468H8.45706C6.7296 76.6468 5.57295 78.5894 6.24891 80.3494L10.1244 90.3448C4.10085 94.2134 0 101.336 0 109.588V117.027C0 121.128 3.01931 124.465 6.7296 124.465H60.5664C64.2767 124.465 67.296 121.128 67.296 117.027V109.588C67.296 101.552 63.4204 94.5787 57.6672 90.6436ZM26.4377 119.152L20.1888 87.2731L27.6394 92.5863L31.2446 99.2277L26.4377 119.152ZM40.8583 119.152L36.0514 99.2277L39.6566 92.5863L47.1072 87.2731L40.8583 119.152ZM47.1222 69.5902C46.5364 71.5661 46.0707 73.6747 44.6437 75.1358C43.1265 76.68 37.4334 78.8551 35.03 70.9849C34.6094 69.5902 32.7167 69.5902 32.281 70.9849C29.7274 79.32 23.869 76.3645 22.6673 75.1358C21.2403 73.6747 20.7596 71.5661 20.1888 69.5902C20.0686 69.1751 19.2424 68.6438 19.2424 68.6272V66.834C23.4935 67.4318 28.4055 67.797 33.663 67.797C38.9205 67.797 43.8325 67.4484 48.0836 66.834V68.6272C48.0685 68.6438 47.2424 69.1585 47.1222 69.5902Z" fill="#313131"/>
<path d="M161.043 13.2576H154.411V6.62879C154.411 4.87072 153.713 3.18467 152.469 1.94153C151.226 0.698389 149.539 0 147.78 0C146.022 0 144.335 0.698389 143.091 1.94153C141.848 3.18467 141.149 4.87072 141.149 6.62879V13.2576H134.518C132.759 13.2576 131.073 13.956 129.829 15.1991C128.585 16.4422 127.887 18.1283 127.887 19.8864C127.887 21.6444 128.585 23.3305 129.829 24.5736C131.073 25.8168 132.759 26.5152 134.518 26.5152H141.149V33.1439C141.149 34.902 141.848 36.5881 143.091 37.8312C144.335 39.0743 146.022 39.7727 147.78 39.7727C149.539 39.7727 151.226 39.0743 152.469 37.8312C153.713 36.5881 154.411 34.902 154.411 33.1439V26.5152H161.043C162.801 26.5152 164.488 25.8168 165.732 24.5736C166.975 23.3305 167.674 21.6444 167.674 19.8864C167.674 18.1283 166.975 16.4422 165.732 15.1991C164.488 13.956 162.801 13.2576 161.043 13.2576Z" fill="#6A5988"/>
<path d="M114.56 75.2671L119.62 59.9835C120.467 57.4199 118.837 54.6855 116.444 54.6855H104.057C106.386 50.0711 107.826 44.7731 107.826 39.0601V38.9868C116.127 37.0825 121.378 34.3236 121.378 31.2473C121.378 28.0002 115.597 25.1192 106.534 23.1905C104.586 15.1824 100.817 7.12555 97.9375 2.97504C95.9259 0.0696854 92.4533 -0.833661 89.5735 0.826543L83.7293 4.19578C81.8236 5.29444 79.5791 5.29444 77.6734 4.19578L71.8291 0.826543C68.9494 -0.833661 65.4767 0.0696854 63.4651 2.97504C60.6066 7.12555 56.8163 15.1824 54.8682 23.1905C45.8266 25.1192 40.0459 28.0002 40.0459 31.2473C40.0459 34.3236 45.2972 37.0825 53.5977 38.9868V39.0601C53.5977 44.7731 55.0376 50.0711 57.3668 54.6855H45.1914C42.7563 54.6855 41.1258 57.542 42.0787 60.13L47.5418 74.8277C39.0507 80.5163 33.27 90.9902 33.27 103.124V114.062C33.27 120.093 37.5261 125 42.7563 125H118.646C123.877 125 128.133 120.093 128.133 114.062V103.124C128.133 91.3076 122.67 81.0534 114.56 75.2671ZM70.5375 117.187L61.7288 70.3109L72.2315 78.1237L77.3134 87.8896L70.5375 117.187ZM90.8652 117.187L84.0893 87.8896L89.1712 78.1237L99.6739 70.3109L90.8652 117.187ZM99.695 44.3092C98.8692 47.2146 98.2128 50.3153 96.2012 52.4638C94.0626 54.7343 86.0374 57.9327 82.6494 46.3601C82.0565 44.3092 79.3885 44.3092 78.7744 46.3601C75.1747 58.6163 66.9166 54.2704 65.2226 52.4638C63.211 50.3153 62.5334 47.2146 61.7288 44.3092C61.5594 43.6989 60.3948 42.9176 60.3948 42.8932V40.2564C66.3872 41.1353 73.3114 41.6724 80.7225 41.6724C88.1337 41.6724 95.0578 41.1597 101.05 40.2564V42.8932C101.029 42.9176 99.8644 43.6744 99.695 44.3092Z" fill="#A1A1A1"/>
</svg>
