<svg width="62" height="59" viewBox="0 0 62 59" fill="none" xmlns="http://www.w3.org/2000/svg">
<path d="M29.4258 0.00193741C26.8025 6.42067 25.2274 10.6269 22.3116 16.8635C24.0979 18.7602 26.2969 20.9708 29.8598 23.4624C26.0256 21.8776 23.412 20.2947 21.4533 18.6498C17.7198 26.4499 11.8668 37.5398 0 58.871C9.33458 53.483 16.5593 50.1622 23.2996 48.8913C23.0168 47.6494 22.8463 46.3087 22.856 44.8944L22.8657 44.6018C23.0168 38.617 26.1244 34.0273 29.8075 34.3392C33.4906 34.6511 36.3561 39.7485 36.2146 45.7313C36.1836 46.8512 36.0538 47.9303 35.831 48.9397C42.5016 50.2417 49.6546 53.5508 58.8575 58.8691C57.0402 55.529 55.4263 52.5124 53.8724 49.6469C51.441 47.7598 48.8971 45.2973 43.7203 42.6334C47.2832 43.5614 49.8251 44.6309 51.8129 45.8224C36.0809 16.5496 34.8197 12.6534 29.422 0L29.4258 0.00193741ZM59.152 53.6148V52.0106H58.5455V51.7878H59.9986V52.0106H59.3922V53.6148H59.152ZM60.2524 53.6148V51.7878H60.6167L61.0507 53.08C61.0913 53.2021 61.1204 53.2912 61.132 53.3532C61.1514 53.2932 61.1921 53.1924 61.2328 53.0607L61.6668 51.7897H62V53.6167H61.7675V52.0823L61.2328 53.6167H61.01L60.4849 52.0629V53.6167L60.2524 53.6148Z" fill="#7D93DF"/>
</svg>
