<svg width="80" height="56" viewBox="0 0 80 56" fill="none" xmlns="http://www.w3.org/2000/svg">
<path d="M0 50C0 53.3125 2.97284 56 6.63704 56H73.0074C76.6716 56 79.6444 53.3125 79.6444 50V28H0V50ZM26.5481 41.5C26.5481 40.675 27.2948 40 28.2074 40H47.0123C47.9249 40 48.6716 40.675 48.6716 41.5V46.5C48.6716 47.325 47.9249 48 47.0123 48H28.2074C27.2948 48 26.5481 47.325 26.5481 46.5V41.5ZM8.84938 41.5C8.84938 40.675 9.59605 40 10.5086 40H20.4642C21.3768 40 22.1235 40.675 22.1235 41.5V46.5C22.1235 47.325 21.3768 48 20.4642 48H10.5086C9.59605 48 8.84938 47.325 8.84938 46.5V41.5ZM79.6444 6V12H0V6C0 2.6875 2.97284 0 6.63704 0H73.0074C76.6716 0 79.6444 2.6875 79.6444 6Z" fill="#E37A70"/>
</svg>
