<svg width="120" height="84" viewBox="0 0 120 84" fill="none" xmlns="http://www.w3.org/2000/svg">
<path d="M4.68456 20.3356H11.1646C12.8051 20.3356 14.0901 20.7805 15.0197 21.6705C15.9494 22.5604 16.4142 23.7501 16.4142 25.2394C16.4142 26.3836 16.1316 27.2826 15.5666 27.9364C15.0197 28.5903 14.3089 29.0534 13.4339 29.3258V29.4076C14.5094 29.6618 15.3934 30.1431 16.0861 30.8515C16.7787 31.5416 17.1251 32.5496 17.1251 33.8755C17.1251 34.6383 16.9975 35.3557 16.7423 36.0277C16.4871 36.6997 16.1225 37.2809 15.6486 37.7712C15.1929 38.2616 14.6461 38.6521 14.0081 38.9427C13.3884 39.2151 12.7139 39.3514 11.9848 39.3514H4.68456V20.3356ZM11.3013 37.3626C12.3585 37.3626 13.1878 37.1265 13.7894 36.6543C14.3909 36.1821 14.6916 35.4556 14.6916 34.4748V33.3578C14.6916 32.3952 14.3909 31.6778 13.7894 31.2056C13.1878 30.7152 12.3585 30.4701 11.3013 30.4701H6.98127V37.3626H11.3013ZM10.9185 28.5903C11.8846 28.5903 12.641 28.3814 13.1878 27.9637C13.7347 27.5278 14.0081 26.8739 14.0081 26.0022V24.9397C14.0081 24.0679 13.7347 23.4141 13.1878 22.9782C12.641 22.5423 11.8846 22.3243 10.9185 22.3243H6.98127V28.5903H10.9185Z" fill="#C64A49"/>
<path d="M23.1569 20.3356V31.7505C23.1569 32.6768 23.1843 33.5031 23.2389 34.2296C23.2936 34.9561 23.4394 35.5827 23.6764 36.1094C23.9134 36.6179 24.2779 37.0084 24.7701 37.2809C25.2805 37.5533 25.9822 37.6895 26.8754 37.6895C27.7686 37.6895 28.4612 37.5533 28.9534 37.2809C29.4637 37.0084 29.8374 36.6179 30.0744 36.1094C30.3113 35.5827 30.4572 34.9561 30.5119 34.2296C30.5665 33.5031 30.5939 32.6768 30.5939 31.7505V20.3356H32.8906V31.2056C32.8906 32.6223 32.8177 33.8573 32.6718 34.9107C32.5443 35.9641 32.2617 36.845 31.8243 37.5533C31.405 38.2616 30.7944 38.7974 29.9924 39.1607C29.2086 39.5057 28.1696 39.6783 26.8754 39.6783C25.5812 39.6783 24.5331 39.5057 23.7311 39.1607C22.9473 38.7974 22.3367 38.2616 21.8992 37.5533C21.48 36.845 21.1974 35.9641 21.0516 34.9107C20.924 33.8573 20.8602 32.6223 20.8602 31.2056V20.3356H23.1569Z" fill="#C64A49"/>
<path d="M42.1214 39.3514V31.8867L35.5321 20.3356H38.1569L40.891 25.2938L43.2151 29.6255H43.3245L45.7032 25.2938L48.4374 20.3356H51.0075L44.4181 31.8867V39.3514H42.1214Z" fill="#C64A49"/>
<path d="M70.4535 20.3356H75.7851C78.1183 20.3356 79.859 21.1347 81.0074 22.733C82.1558 24.3312 82.7299 26.7014 82.7299 29.8435C82.7299 32.9855 82.1558 35.3557 81.0074 36.9539C79.859 38.5522 78.1183 39.3514 75.7851 39.3514H70.4535V20.3356ZM75.6758 37.3626C77.2069 37.3626 78.3553 36.8359 79.1208 35.7825C79.9046 34.7291 80.2965 33.2398 80.2965 31.3146V28.3723C80.2965 26.4471 79.9046 24.9578 79.1208 23.9044C78.3553 22.851 77.2069 22.3243 75.6758 22.3243H72.7502V37.3626H75.6758Z" fill="#C64A49"/>
<path d="M86.6565 20.3356H93.1365C94.777 20.3356 96.062 20.7805 96.9917 21.6705C97.9213 22.5604 98.3861 23.7501 98.3861 25.2394C98.3861 26.3836 98.1036 27.2826 97.5385 27.9364C96.9917 28.5903 96.2808 29.0534 95.4058 29.3258V29.4076C96.4813 29.6618 97.3653 30.1431 98.058 30.8515C98.7506 31.5416 99.097 32.5496 99.097 33.8755C99.097 34.6383 98.9694 35.3557 98.7142 36.0277C98.459 36.6997 98.0944 37.2809 97.6205 37.7712C97.1648 38.2616 96.618 38.6521 95.98 38.9427C95.3603 39.2151 94.6858 39.3514 93.9567 39.3514H86.6565V20.3356ZM93.2732 37.3626C94.3304 37.3626 95.1598 37.1265 95.7613 36.6543C96.3628 36.1821 96.6636 35.4556 96.6636 34.4748V33.3578C96.6636 32.3952 96.3628 31.6778 95.7613 31.2056C95.1598 30.7152 94.3304 30.4701 93.2732 30.4701H88.9532V37.3626H93.2732ZM92.8904 28.5903C93.8565 28.5903 94.6129 28.3814 95.1598 27.9637C95.7066 27.5278 95.98 26.8739 95.98 26.0022V24.9397C95.98 24.0679 95.7066 23.4141 95.1598 22.9782C94.6129 22.5423 93.8565 22.3243 92.8904 22.3243H88.9532V28.5903H92.8904Z" fill="#C64A49"/>
<path d="M109.011 39.6783C107.535 39.6783 106.259 39.4331 105.184 38.9427C104.126 38.4342 103.224 37.7622 102.477 36.9267L103.953 35.6463C104.628 36.3546 105.366 36.8995 106.168 37.2809C106.97 37.6623 107.936 37.853 109.066 37.853C110.16 37.853 111.053 37.6623 111.746 37.2809C112.456 36.8813 112.812 36.2638 112.812 35.4283C112.812 35.0651 112.739 34.7654 112.593 34.5293C112.466 34.275 112.283 34.0752 112.046 33.9299C111.809 33.7846 111.545 33.6757 111.253 33.603C110.962 33.5122 110.652 33.4396 110.324 33.3851L108.109 33.0582C107.617 32.9855 107.079 32.8856 106.496 32.7585C105.931 32.6314 105.411 32.4316 104.937 32.1591C104.464 31.8685 104.062 31.4871 103.734 31.0149C103.425 30.5427 103.27 29.9252 103.27 29.1624C103.27 28.4541 103.406 27.8456 103.68 27.3371C103.971 26.8104 104.372 26.3745 104.883 26.0294C105.393 25.6662 105.995 25.4028 106.687 25.2394C107.38 25.0577 108.136 24.9669 108.957 24.9669C110.233 24.9669 111.335 25.1667 112.265 25.5663C113.213 25.9658 114.024 26.5198 114.698 27.2281L113.277 28.563C113.113 28.3632 112.903 28.1635 112.648 27.9637C112.411 27.7457 112.11 27.555 111.746 27.3916C111.399 27.2099 110.989 27.0646 110.515 26.9557C110.041 26.8467 109.494 26.7922 108.875 26.7922C107.763 26.7922 106.906 26.9829 106.305 27.3643C105.721 27.7457 105.43 28.2997 105.43 29.0262C105.43 29.3894 105.493 29.6982 105.621 29.9524C105.767 30.1885 105.958 30.3792 106.195 30.5245C106.432 30.6698 106.696 30.7879 106.988 30.8787C107.298 30.9514 107.608 31.0149 107.918 31.0694L110.132 31.3963C110.643 31.469 111.18 31.5689 111.746 31.696C112.311 31.8231 112.83 32.032 113.304 32.3226C113.778 32.595 114.17 32.9674 114.48 33.4396C114.808 33.9118 114.972 34.5293 114.972 35.2921C114.972 36.6906 114.425 37.7712 113.331 38.5341C112.256 39.2969 110.816 39.6783 109.011 39.6783Z" fill="#C64A49"/>
<path d="M0 75C0 79.9687 4.47917 84 10 84H110C115.521 84 120 79.9687 120 75V42H0V75ZM40 62.25C40 61.0125 41.125 60 42.5 60H70.8333C72.2083 60 73.3333 61.0125 73.3333 62.25V69.75C73.3333 70.9875 72.2083 72 70.8333 72H42.5C41.125 72 40 70.9875 40 69.75V62.25ZM13.3333 62.25C13.3333 61.0125 14.4583 60 15.8333 60H30.8333C32.2083 60 33.3333 61.0125 33.3333 62.25V69.75C33.3333 70.9875 32.2083 72 30.8333 72H15.8333C14.4583 72 13.3333 70.9875 13.3333 69.75V62.25ZM120 9V18H0V9C0 4.03125 4.47917 0 10 0H110C115.521 0 120 4.03125 120 9Z" fill="#E37A70"/>
</svg>
