<svg width="118" height="118" viewBox="0 0 118 118" fill="none" xmlns="http://www.w3.org/2000/svg">
<g filter="url(#filter0_ddd_386_3503)">
<path d="M79.2551 94.7121C64.783 94.7121 52.1633 86.0353 45.9113 73.3255H79.2551L85.044 61.1046H42.0907C41.8012 59.0881 41.6276 57.0717 41.6276 54.9941C41.6276 52.9166 41.8012 50.9001 42.0907 48.8837H79.2551L85.044 36.6628H45.9113C52.1633 23.953 64.783 15.2761 79.2551 15.2761C88.5752 15.2761 97.1427 18.8813 103.742 24.8696L113.988 14.0541C104.784 5.3161 92.5695 0 79.2551 0C56.5628 0 37.3438 15.2761 30.0499 36.6628H9.78886L4 48.8837H27.5028C27.1554 50.9001 27.1554 52.9166 27.1554 54.9941C27.1554 57.0717 27.1554 59.0881 27.5028 61.1046H9.78886L4 73.3255H30.0499C37.3438 94.7121 56.5628 109.988 79.2551 109.988C92.6274 109.988 104.784 104.672 113.988 95.9342L103.684 85.1187C97.1427 91.107 88.6331 94.7121 79.2551 94.7121Z" fill="#41EF48"/>
</g>
<defs>
<filter id="filter0_ddd_386_3503" x="0" y="0" width="117.988" height="117.988" filterUnits="userSpaceOnUse" color-interpolation-filters="sRGB">
<feFlood flood-opacity="0" result="BackgroundImageFix"/>
<feColorMatrix in="SourceAlpha" type="matrix" values="0 0 0 0 0 0 0 0 0 0 0 0 0 0 0 0 0 0 127 0" result="hardAlpha"/>
<feOffset dy="4"/>
<feGaussianBlur stdDeviation="2"/>
<feComposite in2="hardAlpha" operator="out"/>
<feColorMatrix type="matrix" values="0 0 0 0 0 0 0 0 0 0 0 0 0 0 0 0 0 0 0.25 0"/>
<feBlend mode="normal" in2="BackgroundImageFix" result="effect1_dropShadow_386_3503"/>
<feColorMatrix in="SourceAlpha" type="matrix" values="0 0 0 0 0 0 0 0 0 0 0 0 0 0 0 0 0 0 127 0" result="hardAlpha"/>
<feOffset dy="4"/>
<feGaussianBlur stdDeviation="2"/>
<feComposite in2="hardAlpha" operator="out"/>
<feColorMatrix type="matrix" values="0 0 0 0 0 0 0 0 0 0 0 0 0 0 0 0 0 0 0.25 0"/>
<feBlend mode="normal" in2="effect1_dropShadow_386_3503" result="effect2_dropShadow_386_3503"/>
<feColorMatrix in="SourceAlpha" type="matrix" values="0 0 0 0 0 0 0 0 0 0 0 0 0 0 0 0 0 0 127 0" result="hardAlpha"/>
<feOffset dy="4"/>
<feGaussianBlur stdDeviation="2"/>
<feComposite in2="hardAlpha" operator="out"/>
<feColorMatrix type="matrix" values="0 0 0 0 0 0 0 0 0 0 0 0 0 0 0 0 0 0 0.25 0"/>
<feBlend mode="normal" in2="effect2_dropShadow_386_3503" result="effect3_dropShadow_386_3503"/>
<feBlend mode="normal" in="SourceGraphic" in2="effect3_dropShadow_386_3503" result="shape"/>
</filter>
</defs>
</svg>
