<svg width="302" height="82" viewBox="0 0 302 82" fill="none" xmlns="http://www.w3.org/2000/svg">
<path d="M5.76 70V25.328H33.28V30H11.136V45.04H32.512V49.712H11.136V65.328H33.28V70H5.76ZM64.615 70C62.6097 70 61.1803 69.488 60.327 68.464C59.4737 67.44 58.9403 66.16 58.727 64.624H58.407C57.6817 66.544 56.5083 68.0587 54.887 69.168C53.3083 70.2347 51.175 70.768 48.487 70.768C45.031 70.768 42.279 69.872 40.231 68.08C38.183 66.288 37.159 63.8347 37.159 60.72C37.159 57.648 38.2683 55.28 40.487 53.616C42.7483 51.952 46.375 51.12 51.367 51.12H58.407V47.856C58.407 45.424 57.7243 43.6107 56.359 42.416C54.9937 41.1787 53.0523 40.56 50.535 40.56C48.3163 40.56 46.503 41.008 45.095 41.904C43.687 42.7573 42.5563 43.9307 41.703 45.424L38.247 42.864C38.6737 42.0107 39.2497 41.1787 39.975 40.368C40.7003 39.5573 41.5963 38.8533 42.663 38.256C43.7297 37.616 44.9457 37.1253 46.311 36.784C47.6763 36.4 49.191 36.208 50.855 36.208C54.7377 36.208 57.8097 37.1893 60.071 39.152C62.375 41.1147 63.527 43.8453 63.527 47.344V65.52H68.135V70H64.615ZM49.383 66.48C50.7057 66.48 51.9003 66.3307 52.967 66.032C54.0763 65.6907 55.0363 65.264 55.847 64.752C56.6577 64.1973 57.2763 63.5573 57.703 62.832C58.1723 62.064 58.407 61.2533 58.407 60.4V54.96H51.367C48.295 54.96 46.055 55.3867 44.647 56.24C43.239 57.0933 42.535 58.3307 42.535 59.952V61.296C42.535 63.0027 43.1323 64.304 44.327 65.2C45.5643 66.0533 47.2497 66.48 49.383 66.48ZM70.798 65.648H80.462V41.328H70.798V36.976H85.582V45.296H85.902C86.5847 42.6933 87.8647 40.6667 89.742 39.216C91.662 37.7227 94.094 36.976 97.038 36.976H101.646V42.096H95.438C92.494 42.096 90.1047 42.9493 88.27 44.656C86.478 46.3627 85.582 48.6027 85.582 51.376V65.648H98.382V70H70.798V65.648ZM105.077 70V36.976H110.197V42.352H110.453C110.794 41.5413 111.221 40.7733 111.733 40.048C112.245 39.28 112.864 38.6187 113.589 38.064C114.357 37.5093 115.253 37.0613 116.277 36.72C117.301 36.3787 118.496 36.208 119.861 36.208C123.317 36.208 126.09 37.3173 128.181 39.536C130.272 41.712 131.317 44.8053 131.317 48.816V70H126.197V49.712C126.197 46.6827 125.536 44.4427 124.213 42.992C122.89 41.4987 120.949 40.752 118.389 40.752C117.365 40.752 116.362 40.88 115.381 41.136C114.4 41.392 113.525 41.776 112.757 42.288C111.989 42.8 111.37 43.4613 110.901 44.272C110.432 45.0827 110.197 46.0213 110.197 47.088V70H105.077ZM166.108 70H136.284V64.496L151.196 51.056C153.372 49.0933 155.164 47.088 156.572 45.04C157.98 42.9493 158.684 40.752 158.684 38.448V37.68C158.684 34.992 157.98 32.9227 156.572 31.472C155.164 29.9787 153.073 29.232 150.3 29.232C147.569 29.232 145.457 29.936 143.964 31.344C142.513 32.7093 141.425 34.544 140.7 36.848L135.9 35.056C136.327 33.7333 136.903 32.4533 137.628 31.216C138.396 29.936 139.356 28.8053 140.508 27.824C141.66 26.8427 143.047 26.0533 144.668 25.456C146.332 24.8587 148.252 24.56 150.428 24.56C152.647 24.56 154.609 24.88 156.316 25.52C158.065 26.16 159.516 27.056 160.668 28.208C161.863 29.36 162.759 30.7253 163.356 32.304C163.996 33.8827 164.316 35.6107 164.316 37.488C164.316 39.1947 164.06 40.7947 163.548 42.288C163.079 43.7813 162.396 45.2107 161.5 46.576C160.647 47.9413 159.601 49.2853 158.364 50.608C157.169 51.888 155.825 53.168 154.332 54.448L141.852 65.328H166.108V70ZM170.435 70V25.328H186.691C190.83 25.328 193.987 26.4587 196.163 28.72C198.339 30.9813 199.427 34.1387 199.427 38.192C199.427 42.2453 198.339 45.4027 196.163 47.664C193.987 49.9253 190.83 51.056 186.691 51.056H175.811V70H170.435ZM175.811 46.384H186.563C188.824 46.384 190.574 45.8293 191.811 44.72C193.091 43.568 193.731 41.9467 193.731 39.856V36.528C193.731 34.4373 193.091 32.8373 191.811 31.728C190.574 30.576 188.824 30 186.563 30H175.811V46.384ZM250.129 70.768C246.673 70.768 243.686 70.192 241.169 69.04C238.694 67.8453 236.582 66.2667 234.833 64.304L238.289 61.296C239.868 62.96 241.596 64.24 243.473 65.136C245.35 66.032 247.612 66.48 250.257 66.48C252.817 66.48 254.908 66.032 256.529 65.136C258.193 64.1973 259.025 62.7467 259.025 60.784C259.025 59.9307 258.854 59.2267 258.513 58.672C258.214 58.0747 257.788 57.6053 257.233 57.264C256.678 56.9227 256.06 56.6667 255.377 56.496C254.694 56.2827 253.969 56.112 253.201 55.984L248.017 55.216C246.865 55.0453 245.606 54.8107 244.241 54.512C242.918 54.2133 241.702 53.744 240.593 53.104C239.484 52.4213 238.545 51.5253 237.777 50.416C237.052 49.3067 236.689 47.856 236.689 46.064C236.689 44.4 237.009 42.9707 237.649 41.776C238.332 40.5387 239.27 39.5147 240.465 38.704C241.66 37.8507 243.068 37.232 244.689 36.848C246.31 36.4213 248.081 36.208 250.001 36.208C252.988 36.208 255.569 36.6773 257.745 37.616C259.964 38.5547 261.862 39.856 263.441 41.52L260.113 44.656C259.729 44.1867 259.238 43.7173 258.641 43.248C258.086 42.736 257.382 42.288 256.529 41.904C255.718 41.4773 254.758 41.136 253.649 40.88C252.54 40.624 251.26 40.496 249.809 40.496C247.206 40.496 245.201 40.944 243.793 41.84C242.428 42.736 241.745 44.0373 241.745 45.744C241.745 46.5973 241.894 47.3227 242.193 47.92C242.534 48.4747 242.982 48.9227 243.537 49.264C244.092 49.6053 244.71 49.8827 245.393 50.096C246.118 50.2667 246.844 50.416 247.569 50.544L252.753 51.312C253.948 51.4827 255.206 51.7173 256.529 52.016C257.852 52.3147 259.068 52.8053 260.177 53.488C261.286 54.128 262.204 55.0027 262.929 56.112C263.697 57.2213 264.081 58.672 264.081 60.464C264.081 63.7493 262.801 66.288 260.241 68.08C257.724 69.872 254.353 70.768 250.129 70.768ZM284.28 70C281.763 70 279.907 69.296 278.712 67.888C277.56 66.48 276.984 64.6667 276.984 62.448V41.328H265.976V36.976H274.168C275.277 36.976 276.045 36.7627 276.472 36.336C276.941 35.8667 277.176 35.0773 277.176 33.968V25.328H282.104V36.976H297.144V41.328H282.104V65.648H297.144V70H284.28Z" fill="#6A5988"/>
<path d="M228.55 67.4462L231.046 65.6837L226.259 59.9065L230.663 55.5818C230.747 55.4985 230.822 55.4255 230.907 55.3422L237.917 58.7122L239.404 56.2184L232.72 52.9931C233.677 51.3864 234.256 49.6199 234.416 47.8124C234.576 46.0049 234.314 44.1984 233.649 42.5146L236.832 39.3883L234.631 37.4961L232.265 39.8199C231.143 38.2556 229.637 36.9607 227.863 36.0355L230.229 33.7117L228.029 31.8194L224.846 34.9457C222.963 34.4507 220.974 34.3382 219.014 34.6158C217.054 34.8934 215.169 35.5546 213.488 36.5546L209.595 30.5885L207.041 32.1645L211.1 38.3123L210.856 38.552L206.453 42.8767L199.873 38.8806L198.104 41.2675L204.299 44.9921C203.015 46.2997 202.033 47.8308 201.414 49.4882L191.612 49.9335L191.668 52.7567L200.735 52.3441C200.515 54.266 200.772 56.1958 201.488 57.9863C202.204 59.7769 203.36 61.381 204.867 62.6766C206.374 63.9722 208.192 64.9251 210.184 65.4627C212.175 66.0002 214.288 66.1083 216.36 65.7788L216.514 74.1197L219.583 73.9834L219.405 64.957C221.166 64.2836 222.767 63.2841 224.106 62.022L228.55 67.4462ZM205.951 59.5847C204.374 57.7594 203.581 55.4525 203.717 53.0859C203.853 50.7193 204.909 48.4513 206.691 46.6967L213.057 40.4442L219.659 46.1208L205.951 59.5847ZM215.498 38.6344C217.505 37.534 219.825 37.0497 222.113 37.2536C224.4 37.4575 226.533 38.3387 228.193 39.766C229.853 41.1932 230.951 43.0901 231.324 45.1741C231.698 47.258 231.326 49.4176 230.265 51.3311L215.498 38.6344ZM222.096 59.9422C220.309 61.693 217.917 62.8116 215.356 63.0934C212.796 63.3752 210.238 62.8014 208.152 61.4769L221.86 48.013L228.462 53.6896L222.096 59.9422Z" fill="#6A5988"/>
</svg>
