<svg width="58" height="56" viewBox="0 0 58 56" fill="none" xmlns="http://www.w3.org/2000/svg">
<path d="M28.6406 55.9999C27.7563 55.9988 26.8927 55.7298 26.1622 55.2279C15.3413 47.8328 10.6558 42.7623 8.07142 39.5922C2.5639 32.8348 -0.0728226 25.8972 0.00152891 18.3843C0.0882723 9.77499 6.94926 2.77222 15.2959 2.77222C21.3652 2.77222 25.5688 6.214 28.0169 9.08053C28.0944 9.17042 28.1903 9.2425 28.2979 9.2919C28.4055 9.3413 28.5224 9.36686 28.6406 9.36686C28.7589 9.36686 28.8758 9.3413 28.9834 9.2919C29.091 9.2425 29.1868 9.17042 29.2644 9.08053C31.7124 6.21123 35.9161 2.77222 41.9853 2.77222C50.332 2.77222 57.193 9.77499 57.2797 18.3857C57.3541 25.8999 54.7146 32.8376 49.2098 39.5936C46.6254 42.7637 41.9399 47.8342 31.119 55.2292C30.3884 55.7307 29.5249 55.9992 28.6406 55.9999Z" fill="#212121"/>
<path d="M45.426 32.6382L46.8261 31.3933L43.7146 27.829L46.1276 24.8428C46.1742 24.7852 46.2149 24.7348 46.2614 24.6773L50.5812 26.5885L51.3477 24.9085L47.229 23.0782C47.7225 21.9959 47.9835 20.8247 47.9944 19.6435C48.0053 18.4623 47.7658 17.2986 47.2922 16.2307L49.0366 14.072L47.6417 12.9298L46.345 14.5344C45.6058 13.5623 44.6512 12.7806 43.5553 12.2499L44.852 10.6453L43.4571 9.50303L41.7127 11.6617C40.5714 11.4149 39.3851 11.421 38.2344 11.6794C37.0836 11.9379 35.9954 12.4427 35.0436 13.1596L32.4542 9.43685L31.0111 10.5629L33.7075 14.3971L33.5738 14.5626L31.1607 17.5488L27.0677 15.2134L26.128 16.8353L29.9803 19.0095C29.2788 19.9105 28.7666 20.9447 28.4764 22.0466L22.6772 22.7263L22.8419 24.559L28.2063 23.9299C28.165 25.1878 28.4079 26.4318 28.9165 27.5671C29.425 28.7024 30.1858 29.699 31.1409 30.4811C32.0959 31.2632 33.2201 31.8101 34.4278 32.0802C35.6354 32.3503 36.8948 32.3365 38.1099 32.0398L38.59 37.4549L40.406 37.2442L39.8795 31.3845C40.8941 30.8767 41.7981 30.1633 42.5342 29.2897L45.426 32.6382ZM31.6408 28.4283C30.6195 27.3047 30.0412 25.8369 30.0117 24.2933C29.9821 22.7497 30.5033 21.2335 31.4799 20.0222L34.9687 15.7048L39.1533 19.1316L31.6408 28.4283ZM36.3339 14.4313C37.4744 13.6362 38.8295 13.2291 40.1973 13.2706C41.5651 13.312 42.8724 13.7999 43.9245 14.6614C44.9766 15.523 45.7172 16.7121 46.0359 18.0518C46.3547 19.3914 46.2346 20.8099 45.6934 22.0958L36.3339 14.4313ZM41.244 28.0179C40.2647 29.227 38.8962 30.0493 37.3889 30.3344C35.8816 30.6195 34.3363 30.3483 33.0356 29.5705L40.5482 20.2738L44.7328 23.7005L41.244 28.0179Z" fill="#FFFEFE"/>
</svg>
