<svg width="33" height="30" viewBox="0 0 33 30" fill="none" xmlns="http://www.w3.org/2000/svg">
<path d="M9.28432 11.7857C8.14365 11.7857 7.22209 12.7433 7.22209 13.9286C7.22209 15.1138 8.14365 16.0714 9.28432 16.0714C10.425 16.0714 11.3466 15.1138 11.3466 13.9286C11.3466 12.7433 10.425 11.7857 9.28432 11.7857ZM16.5021 11.7857C15.3615 11.7857 14.4399 12.7433 14.4399 13.9286C14.4399 15.1138 15.3615 16.0714 16.5021 16.0714C17.6428 16.0714 18.5644 15.1138 18.5644 13.9286C18.5644 12.7433 17.6428 11.7857 16.5021 11.7857ZM23.72 11.7857C22.5793 11.7857 21.6577 12.7433 21.6577 13.9286C21.6577 15.1138 22.5793 16.0714 23.72 16.0714C24.8606 16.0714 25.7822 15.1138 25.7822 13.9286C25.7822 12.7433 24.8606 11.7857 23.72 11.7857ZM16.5021 0C7.38965 0 0.00427708 6.23437 0.00427708 13.9286C0.00427708 17.1161 1.28673 20.0357 3.41341 22.3862C2.45318 25.0246 0.45539 27.2612 0.423168 27.2879C-0.00216739 27.7567 -0.118168 28.4397 0.126722 29.029C0.371612 29.6183 0.932282 30 1.55095 30C5.51431 30 8.63988 28.279 10.5152 26.8996C12.3777 27.5089 14.3884 27.8571 16.5021 27.8571C25.6146 27.8571 33 21.6228 33 13.9286C33 6.23437 25.6146 0 16.5021 0ZM16.5021 24.6429C14.7815 24.6429 13.0801 24.3683 11.4497 23.8326L9.98677 23.3504L8.7301 24.2746C7.80854 24.9509 6.54542 25.7076 5.02452 26.2165C5.49497 25.4062 5.95253 24.4955 6.30698 23.5246L6.99009 21.6429L5.66253 20.183C4.49608 18.8906 3.09763 16.7545 3.09763 13.9286C3.09763 8.02232 9.11032 3.21429 16.5021 3.21429C23.894 3.21429 29.9067 8.02232 29.9067 13.9286C29.9067 19.8348 23.894 24.6429 16.5021 24.6429Z" fill="#E0E1E1"/>
</svg>
