<svg width="100" height="44" viewBox="0 0 100 44" fill="none" xmlns="http://www.w3.org/2000/svg">
<path d="M29.4429 27.0956L31.2759 21.9006C31.5826 21.0293 30.9921 20.0998 30.1255 20.0998H25.6388C26.4825 18.5314 27.004 16.7306 27.004 14.7887V14.7638C30.0104 14.1165 31.9124 13.1787 31.9124 12.1331C31.9124 11.0294 29.8187 10.0501 26.5362 9.39451C25.8306 6.67254 24.4654 3.93397 23.4224 2.52319C22.6938 1.53565 21.436 1.2286 20.393 1.79291L18.2762 2.93813C17.586 3.31157 16.773 3.31157 16.0828 2.93813L13.966 1.79291C12.923 1.2286 11.6652 1.53565 10.9366 2.52319C9.90121 3.93397 8.52839 6.67254 7.8228 9.39451C4.54796 10.0501 2.45421 11.0294 2.45421 12.1331C2.45421 13.1787 4.35623 14.1165 7.36264 14.7638V14.7887C7.36264 16.7306 7.88416 18.5314 8.72779 20.0998H4.31788C3.4359 20.0998 2.84535 21.0708 3.19048 21.9504L5.16919 26.9462C2.09375 28.8798 0 32.44 0 36.5644V40.2822C0 42.332 1.54155 44.0001 3.4359 44.0001H30.9231C32.8174 44.0001 34.359 42.332 34.359 40.2822V36.5644C34.359 32.5479 32.3803 29.0624 29.4429 27.0956ZM13.4982 41.3445L10.3077 25.411L14.1117 28.0666L15.9524 31.386L13.4982 41.3445ZM20.8608 41.3445L18.4066 31.386L20.2473 28.0666L24.0513 25.411L20.8608 41.3445ZM24.059 16.5729C23.7598 17.5604 23.5221 18.6144 22.7935 19.3446C22.0189 20.1164 19.1122 21.2035 17.8851 17.27C17.6703 16.5729 16.704 16.5729 16.4816 17.27C15.1778 21.4359 12.1867 19.9587 11.5731 19.3446C10.8446 18.6144 10.5991 17.5604 10.3077 16.5729C10.2463 16.3654 9.82452 16.0999 9.82452 16.0916V15.1953C11.995 15.494 14.5029 15.6766 17.1872 15.6766C19.8715 15.6766 22.3794 15.5023 24.5498 15.1953V16.0916C24.5421 16.0999 24.1203 16.3571 24.059 16.5729Z" fill="#6A5988"/>
<path d="M95.0105 27.0956L96.8708 21.9006C97.1822 21.0293 96.5828 20.0998 95.7033 20.0998H91.1497C92.0059 18.5314 92.5352 16.7306 92.5352 14.7887V14.7638C95.5865 14.1165 97.5169 13.1787 97.5169 12.1331C97.5169 11.0294 95.3919 10.0501 92.0604 9.39451C91.3443 6.67254 89.9588 3.93397 88.9002 2.52319C88.1607 1.53565 86.8841 1.2286 85.8255 1.79291L83.6772 2.93813C82.9766 3.31157 82.1515 3.31157 81.451 2.93813L79.3026 1.79291C78.244 1.2286 76.9675 1.53565 76.228 2.52319C75.1772 3.93397 73.7839 6.67254 73.0677 9.39451C69.744 10.0501 67.619 11.0294 67.619 12.1331C67.619 13.1787 69.5494 14.1165 72.6007 14.7638V14.7887C72.6007 16.7306 73.13 18.5314 73.9862 20.0998H69.5105C68.6154 20.0998 68.016 21.0708 68.3663 21.9504L70.3745 26.9462C67.2532 28.8798 65.1282 32.44 65.1282 36.5644V40.2822C65.1282 42.332 66.6927 44.0001 68.6154 44.0001H96.5128C98.4354 44.0001 100 42.332 100 40.2822V36.5644C100 32.5479 97.9917 29.0624 95.0105 27.0956ZM78.8278 41.3445L75.5897 25.411L79.4505 28.0666L81.3187 31.386L78.8278 41.3445ZM86.3003 41.3445L83.8095 31.386L85.6776 28.0666L89.5384 25.411L86.3003 41.3445ZM89.5462 16.5729C89.2426 17.5604 89.0013 18.6144 88.2619 19.3446C87.4757 20.1164 84.5256 21.2035 83.2802 17.27C83.0622 16.5729 82.0815 16.5729 81.8557 17.27C80.5325 21.4359 77.4968 19.9587 76.8741 19.3446C76.1346 18.6144 75.8855 17.5604 75.5897 16.5729C75.5274 16.3654 75.0993 16.0999 75.0993 16.0916V15.1953C77.3022 15.494 79.8475 15.6766 82.5719 15.6766C85.2962 15.6766 87.8415 15.5023 90.0444 15.1953V16.0916C90.0366 16.0999 89.6085 16.3571 89.5462 16.5729Z" fill="#6A5988"/>
<path fill-rule="evenodd" clip-rule="evenodd" d="M27.1965 14.9439C27.1965 14.9411 27.1965 14.9383 27.1965 14.9355V14.9102C30.2331 14.2542 32.1543 13.3037 32.1543 12.2439C32.1543 11.1253 30.0395 10.1328 26.7239 9.46829C26.0112 6.70946 24.6323 3.93381 23.5788 2.50393C22.8429 1.50301 21.5724 1.1918 20.5189 1.76375L18.3808 2.92448C17.6836 3.30298 16.8625 3.30298 16.1653 2.92448L14.0272 1.76375C12.9737 1.1918 11.7032 1.50301 10.9673 2.50393C9.9215 3.93381 8.53486 6.70946 7.82217 9.46829C4.51436 10.1328 2.39954 11.1253 2.39954 12.2439C2.39954 13.3037 4.3207 14.2542 7.35737 14.9102V14.9355C7.35737 14.9391 7.35737 14.9427 7.35738 14.9462L9.84404 15.3675V15.3476C11.4172 15.5649 13.1658 15.7215 15.0298 15.7927H17.4097L21.4143 15.6931C22.0678 15.6468 22.7029 15.5899 23.3166 15.5229L27.1965 14.9439Z" fill="#212121"/>
<path d="M27.1965 14.9439L27.2703 15.4384L27.6965 15.3748V14.9439H27.1965ZM27.1965 14.9102L27.0909 14.4215L26.6965 14.5067V14.9102H27.1965ZM26.7239 9.46829L26.2398 9.59335L26.3182 9.89693L26.6257 9.95854L26.7239 9.46829ZM23.5788 2.50393L23.176 2.80011L23.1763 2.80052L23.5788 2.50393ZM20.5189 1.76375L20.2803 1.32433L20.2803 1.32433L20.5189 1.76375ZM18.3808 2.92448L18.6194 3.3639L18.6194 3.3639L18.3808 2.92448ZM16.1653 2.92448L15.9267 3.3639L15.9267 3.3639L16.1653 2.92448ZM14.0272 1.76375L14.2658 1.32433L14.2658 1.32433L14.0272 1.76375ZM10.9673 2.50393L10.5645 2.20774L10.5637 2.20876L10.9673 2.50393ZM7.82217 9.46829L7.92064 9.95849L8.22789 9.89677L8.30628 9.59335L7.82217 9.46829ZM7.35737 14.9102H7.85737V14.5067L7.46296 14.4215L7.35737 14.9102ZM7.35738 14.9462L6.85738 14.9467L6.85777 15.3687L7.27387 15.4392L7.35738 14.9462ZM9.84404 15.3675L9.76053 15.8604L10.344 15.9593V15.3675H9.84404ZM9.84404 15.3476L9.91245 14.8523L9.34404 14.7738V15.3476H9.84404ZM15.0298 15.7927L15.0107 16.2923L15.0203 16.2927H15.0298V15.7927ZM17.4097 15.7927V16.2929L17.4221 16.2925L17.4097 15.7927ZM21.4143 15.6931L21.4268 16.1929L21.4382 16.1927L21.4496 16.1918L21.4143 15.6931ZM23.3166 15.5229L23.3709 16.0199L23.3807 16.0189L23.3904 16.0174L23.3166 15.5229ZM27.6965 14.9439C27.6965 14.9427 27.6965 14.9415 27.6965 14.94C27.6965 14.9387 27.6965 14.9371 27.6965 14.9355H26.6965C26.6965 14.9367 26.6965 14.9379 26.6965 14.9394C26.6965 14.9407 26.6965 14.9423 26.6965 14.9439H27.6965ZM27.6965 14.9355V14.9102H26.6965V14.9355H27.6965ZM27.302 15.399C28.8401 15.0667 30.1295 14.6534 31.0468 14.1711C31.505 13.9301 31.8946 13.6596 32.1753 13.3531C32.4586 13.0439 32.6543 12.6708 32.6543 12.2439H31.6543C31.6543 12.347 31.6098 12.4901 31.438 12.6776C31.2636 12.868 30.9831 13.0747 30.5814 13.2859C29.7791 13.7078 28.5895 14.0977 27.0909 14.4215L27.302 15.399ZM32.6543 12.2439C32.6543 11.7949 32.4397 11.4056 32.1329 11.0857C31.8283 10.768 31.4051 10.4878 30.9058 10.2385C29.9058 9.73905 28.4992 9.31413 26.8222 8.97804L26.6257 9.95854C28.2642 10.2869 29.5728 10.6905 30.459 11.1331C30.903 11.3548 31.2157 11.574 31.4112 11.7778C31.6045 11.9794 31.6543 12.1336 31.6543 12.2439H32.6543ZM27.208 9.34323C26.4809 6.52864 25.0763 3.6935 23.9813 2.20734L23.1763 2.80052C24.1883 4.17411 25.5415 6.89028 26.2398 9.59335L27.208 9.34323ZM23.9816 2.20774C23.1075 1.01885 21.5676 0.625475 20.2803 1.32433L20.7574 2.20318C21.5772 1.75813 22.5782 1.98717 23.176 2.80011L23.9816 2.20774ZM20.2803 1.32433L18.1423 2.48506L18.6194 3.3639L20.7574 2.20318L20.2803 1.32433ZM18.1423 2.48506C17.5938 2.78279 16.9522 2.78279 16.4038 2.48506L15.9267 3.3639C16.7727 3.82317 17.7734 3.82317 18.6194 3.3639L18.1423 2.48506ZM16.4038 2.48506L14.2658 1.32433L13.7887 2.20318L15.9267 3.3639L16.4038 2.48506ZM14.2658 1.32433C12.9785 0.625475 11.4386 1.01885 10.5645 2.20774L11.3701 2.80011C11.9678 1.98717 12.9689 1.75813 13.7887 2.20318L14.2658 1.32433ZM10.5637 2.20876C9.47793 3.69332 8.06543 6.52756 7.33806 9.34323L8.30628 9.59335C9.00428 6.89136 10.3651 4.1743 11.3709 2.7991L10.5637 2.20876ZM7.7237 8.97808C6.05052 9.31419 4.64587 9.73912 3.64685 10.2386C3.14813 10.4879 2.7252 10.7681 2.42072 11.0857C2.11407 11.4056 1.89954 11.7949 1.89954 12.2439H2.89954C2.89954 12.1336 2.94935 11.9793 3.14261 11.7777C3.33802 11.5739 3.65054 11.3547 4.094 11.133C4.97934 10.6904 6.28601 10.2869 7.92064 9.95849L7.7237 8.97808ZM1.89954 12.2439C1.89954 12.6708 2.09522 13.0439 2.37849 13.3531C2.65924 13.6596 3.04883 13.9301 3.50702 14.1711C4.42437 14.6534 5.71374 15.0667 7.25178 15.399L7.46296 14.4215C5.96433 14.0977 4.77478 13.7078 3.97238 13.2859C3.5707 13.0747 3.2902 12.868 3.11584 12.6776C2.944 12.4901 2.89954 12.347 2.89954 12.2439H1.89954ZM6.85737 14.9102V14.9355H7.85737V14.9102H6.85737ZM6.85737 14.9355C6.85737 14.9392 6.85737 14.943 6.85738 14.9467L7.85738 14.9458C7.85737 14.9423 7.85737 14.9389 7.85737 14.9355H6.85737ZM9.92755 14.8745L7.44089 14.4533L7.27387 15.4392L9.76053 15.8604L9.92755 14.8745ZM10.344 15.3675V15.3476H9.34404V15.3675H10.344ZM9.77563 15.8429C11.3659 16.0626 13.131 16.2206 15.0107 16.2923L15.0489 15.2931C13.2006 15.2225 11.4685 15.0672 9.91245 14.8523L9.77563 15.8429ZM17.4097 15.2927H15.0298V16.2927H17.4097V15.2927ZM21.4019 15.1932L17.3973 15.2929L17.4221 16.2925L21.4268 16.1929L21.4019 15.1932ZM21.4496 16.1918C22.1092 16.1452 22.7506 16.0876 23.3709 16.0199L23.2624 15.0258C22.6552 15.0921 22.0265 15.1485 21.379 15.1943L21.4496 16.1918ZM27.1227 14.4494L23.2428 15.0284L23.3904 16.0174L27.2703 15.4384L27.1227 14.4494Z" fill="#212121"/>
<path fill-rule="evenodd" clip-rule="evenodd" d="M92.465 14.9702C92.465 14.9673 92.465 14.9643 92.465 14.9614V14.9352C95.5017 14.2546 97.4229 13.2684 97.4229 12.1689C97.4229 11.0082 95.308 9.97849 91.9925 9.28908C91.2798 6.42673 89.9009 3.54692 88.8473 2.06338C88.1114 1.02491 86.841 0.702021 85.7874 1.29544L83.6494 2.49972C82.9522 2.89242 82.131 2.89242 81.4338 2.49972L79.2958 1.29544C78.2422 0.702021 76.9718 1.02491 76.2359 2.06338C75.1901 3.54692 73.8034 6.42673 73.0907 9.28908C69.7829 9.97849 67.6681 11.0082 67.6681 12.1689C67.6681 13.2684 69.5893 14.2546 72.6259 14.9352V14.9614C72.6259 14.9651 72.6259 14.9689 72.6259 14.9726L75.1126 15.4096V15.389C76.6857 15.6145 78.4344 15.777 80.2984 15.8508H82.6782L86.6828 15.7475C87.3364 15.6995 87.9715 15.6404 88.5852 15.5709L92.465 14.9702Z" fill="#A1A1A1"/>
<path d="M53.8939 5.81979C54.2201 5.49435 54.6623 5.31152 55.1235 5.31152C55.5846 5.31152 56.0269 5.49435 56.353 5.81979L63.3093 12.7637C63.6353 13.0892 63.8184 13.5307 63.8184 13.991C63.8184 14.4513 63.6353 14.8928 63.3093 15.2183L56.353 22.1622C56.025 22.4784 55.5857 22.6534 55.1297 22.6494C54.6737 22.6455 54.2376 22.4629 53.9151 22.141C53.5927 21.8192 53.4098 21.3838 53.4058 20.9286C53.4019 20.4734 53.5771 20.0349 53.8939 19.7075L57.8816 15.727H37.7327C37.2715 15.727 36.8292 15.5441 36.503 15.2185C36.1769 14.8929 35.9937 14.4514 35.9937 13.991C35.9937 13.5306 36.1769 13.089 36.503 12.7635C36.8292 12.4379 37.2715 12.255 37.7327 12.255H57.8816L53.8939 8.27445C53.5679 7.94891 53.3848 7.50744 53.3848 7.04712C53.3848 6.5868 53.5679 6.14533 53.8939 5.81979ZM45.9185 23.1795C46.2446 23.505 46.4277 23.9465 46.4277 24.4068C46.4277 24.8671 46.2446 25.3086 45.9185 25.6341L41.9308 29.6147H62.0797C62.541 29.6147 62.9833 29.7976 63.3095 30.1231C63.6356 30.4487 63.8188 30.8903 63.8188 31.3507C63.8188 31.8111 63.6356 32.2526 63.3095 32.5782C62.9833 32.9037 62.541 33.0866 62.0797 33.0866H41.9308L45.9185 37.0672C46.2353 37.3946 46.4106 37.8331 46.4067 38.2883C46.4027 38.7435 46.2198 39.1789 45.8974 39.5007C45.5749 39.8226 45.1387 40.0051 44.6828 40.0091C44.2268 40.0131 43.7875 39.8381 43.4595 39.5219L36.5032 32.578C36.1772 32.2525 35.994 31.811 35.994 31.3507C35.994 30.8903 36.1772 30.4489 36.5032 30.1233L43.4595 23.1795C43.7856 22.854 44.2279 22.6712 44.689 22.6712C45.1502 22.6712 45.5924 22.854 45.9185 23.1795Z" fill="#212121"/>
</svg>
