<svg width="33" height="40" viewBox="0 0 33 40" fill="none" xmlns="http://www.w3.org/2000/svg">
<path d="M28.2783 24.0855L30.0388 19.1947C30.3335 18.3744 29.7663 17.4994 28.9339 17.4994H24.6248C25.435 16.0228 25.9359 14.3274 25.9359 12.4992V12.4758C28.8234 11.8664 30.6502 10.9835 30.6502 9.99915C30.6502 8.96005 28.6393 8.03815 25.4866 7.42095C24.8089 4.85837 23.4978 2.28018 22.496 0.952013C21.7962 0.0222993 20.5882 -0.266771 19.5864 0.264494L17.5533 1.34265C16.8904 1.69422 16.1096 1.69422 15.4467 1.34265L13.4136 0.264494C12.4118 -0.266771 11.2038 0.0222993 10.504 0.952013C9.5096 2.28018 8.19107 4.85837 7.51339 7.42095C4.36808 8.03815 2.35714 8.96005 2.35714 9.99915C2.35714 10.9835 4.18393 11.8664 7.07143 12.4758V12.4992C7.07143 14.3274 7.57232 16.0228 8.38259 17.4994H4.1471C3.3 17.4994 2.73281 18.4135 3.06429 19.2416L4.96473 23.9449C2.01094 25.7652 0 29.1169 0 32.9998V36.4999C0 38.4296 1.48058 40 3.3 40H29.7C31.5194 40 33 38.4296 33 36.4999V32.9998C33 29.2184 31.0996 25.9371 28.2783 24.0855ZM12.9643 37.4999L9.9 22.4995L13.5536 24.9996L15.3214 28.1247L12.9643 37.4999ZM20.0357 37.4999L17.6786 28.1247L19.4464 24.9996L23.1 22.4995L20.0357 37.4999ZM23.1074 14.179C22.8201 15.1087 22.5917 16.1009 21.892 16.7884C21.148 17.515 18.3563 18.5385 17.1777 14.8352C16.9714 14.179 16.0433 14.179 15.8297 14.8352C14.5775 18.7572 11.7047 17.3665 11.1154 16.7884C10.4156 16.1009 10.1799 15.1087 9.9 14.179C9.84107 13.9836 9.43594 13.7336 9.43594 13.7258V12.882C11.5205 13.1633 13.9292 13.3352 16.5074 13.3352C19.0855 13.3352 21.4942 13.1711 23.5788 12.882V13.7258C23.5714 13.7336 23.1663 13.9758 23.1074 14.179Z" fill="#E0E1E1"/>
</svg>
