<svg width="40" height="36" viewBox="0 0 40 36" fill="none" xmlns="http://www.w3.org/2000/svg">
<path d="M11.2537 14.1429C9.87109 14.1429 8.75405 15.292 8.75405 16.7143C8.75405 18.1366 9.87109 19.2857 11.2537 19.2857C12.6364 19.2857 13.7534 18.1366 13.7534 16.7143C13.7534 15.292 12.6364 14.1429 11.2537 14.1429ZM20.0026 14.1429C18.62 14.1429 17.5029 15.292 17.5029 16.7143C17.5029 18.1366 18.62 19.2857 20.0026 19.2857C21.3852 19.2857 22.5023 18.1366 22.5023 16.7143C22.5023 15.292 21.3852 14.1429 20.0026 14.1429ZM28.7515 14.1429C27.3688 14.1429 26.2518 15.292 26.2518 16.7143C26.2518 18.1366 27.3688 19.2857 28.7515 19.2857C30.1341 19.2857 31.2511 18.1366 31.2511 16.7143C31.2511 15.292 30.1341 14.1429 28.7515 14.1429ZM20.0026 0C8.95715 0 0.00518434 7.48125 0.00518434 16.7143C0.00518434 20.5393 1.55967 24.0429 4.13746 26.8634C2.97355 30.0295 0.551988 32.7134 0.512931 32.7455C-0.00262714 33.308 -0.143234 34.1277 0.153603 34.8348C0.450439 35.542 1.13004 36 1.87994 36C6.68401 36 10.4726 33.9348 12.7457 32.2795C15.0032 33.0107 17.4404 33.4286 20.0026 33.4286C31.048 33.4286 40 25.9473 40 16.7143C40 7.48125 31.048 0 20.0026 0ZM20.0026 29.5714C17.9169 29.5714 15.8547 29.242 13.8784 28.5991L12.1052 28.0205L10.5819 29.1295C9.4649 29.9411 7.93384 30.8491 6.09033 31.4598C6.66057 30.4875 7.21519 29.3946 7.64482 28.2295L8.47284 25.9714L6.86367 24.2196C5.44979 22.6687 3.7547 20.1054 3.7547 16.7143C3.7547 9.62679 11.0428 3.85714 20.0026 3.85714C28.9624 3.85714 36.2505 9.62679 36.2505 16.7143C36.2505 23.8018 28.9624 29.5714 20.0026 29.5714Z" fill="#E0E1E1"/>
</svg>
