<svg width="42" height="29" viewBox="0 0 42 29" fill="none" xmlns="http://www.w3.org/2000/svg">
<path d="M1.63959 7.02061H3.9076C4.48177 7.02061 4.93154 7.17423 5.25691 7.48148C5.58228 7.78872 5.74496 8.19942 5.74496 8.71359C5.74496 9.10861 5.64608 9.41899 5.4483 9.64472C5.25691 9.87045 5.0081 10.0303 4.70187 10.1244V10.1526C5.07828 10.2404 5.3877 10.4066 5.63013 10.6511C5.87256 10.8894 5.99377 11.2374 5.99377 11.6951C5.99377 11.9585 5.94911 12.2061 5.8598 12.4381C5.77048 12.6701 5.64289 12.8708 5.47701 13.0401C5.31752 13.2094 5.12613 13.3442 4.90284 13.4445C4.68592 13.5386 4.44987 13.5856 4.19468 13.5856H1.63959V7.02061ZM3.95544 12.899C4.32547 12.899 4.61575 12.8175 4.82628 12.6545C5.03681 12.4914 5.14208 12.2406 5.14208 11.902V11.5164C5.14208 11.1841 5.03681 10.9364 4.82628 10.7734C4.61575 10.6041 4.32547 10.5194 3.95544 10.5194H2.44344V12.899H3.95544ZM3.82147 9.87045C4.15959 9.87045 4.42435 9.79834 4.61575 9.65413C4.80714 9.50364 4.90284 9.27791 4.90284 8.97694V8.61013C4.90284 8.30915 4.80714 8.08342 4.61575 7.93294C4.42435 7.78245 4.15959 7.70721 3.82147 7.70721H2.44344V9.87045H3.82147Z" fill="#E0E1E1"/>
<path d="M8.10492 7.02061V10.9615C8.10492 11.2813 8.11449 11.5666 8.13363 11.8174C8.15277 12.0682 8.20381 12.2845 8.28674 12.4663C8.36968 12.6419 8.49727 12.7767 8.66953 12.8708C8.84816 12.9648 9.09378 13.0119 9.40639 13.0119C9.719 13.0119 9.96143 12.9648 10.1337 12.8708C10.3123 12.7767 10.4431 12.6419 10.526 12.4663C10.609 12.2845 10.66 12.0682 10.6791 11.8174C10.6983 11.5666 10.7079 11.2813 10.7079 10.9615V7.02061H11.5117V10.7734C11.5117 11.2625 11.4862 11.6888 11.4351 12.0525C11.3905 12.4162 11.2916 12.7203 11.1385 12.9648C10.9918 13.2094 10.778 13.3943 10.4973 13.5197C10.223 13.6389 9.85935 13.6985 9.40639 13.6985C8.95343 13.6985 8.58659 13.6389 8.30588 13.5197C8.03155 13.3943 7.81783 13.2094 7.66472 12.9648C7.51798 12.7203 7.4191 12.4162 7.36806 12.0525C7.3234 11.6888 7.30107 11.2625 7.30107 10.7734V7.02061H8.10492Z" fill="#E0E1E1"/>
<path d="M14.7425 13.5856V11.0085L12.4362 7.02061H13.3549L14.3119 8.7324L15.1253 10.2279H15.1636L15.9961 8.7324L16.9531 7.02061H17.8526L15.5463 11.0085V13.5856H14.7425Z" fill="#E0E1E1"/>
<path d="M24.6587 7.02061H26.5248C27.3414 7.02061 27.9507 7.2965 28.3526 7.84829C28.7545 8.40007 28.9555 9.21834 28.9555 10.3031C28.9555 11.3879 28.7545 12.2061 28.3526 12.7579C27.9507 13.3097 27.3414 13.5856 26.5248 13.5856H24.6587V7.02061ZM26.4865 12.899C27.0224 12.899 27.4243 12.7172 27.6923 12.3535C27.9666 11.9898 28.1038 11.4756 28.1038 10.811V9.79521C28.1038 9.13056 27.9666 8.6164 27.6923 8.25272C27.4243 7.88905 27.0224 7.70721 26.4865 7.70721H25.4626V12.899H26.4865Z" fill="#E0E1E1"/>
<path d="M30.3298 7.02061H32.5978C33.1719 7.02061 33.6217 7.17423 33.9471 7.48148C34.2724 7.78872 34.4351 8.19942 34.4351 8.71359C34.4351 9.10861 34.3362 9.41899 34.1385 9.64472C33.9471 9.87045 33.6983 10.0303 33.392 10.1244V10.1526C33.7684 10.2404 34.0779 10.4066 34.3203 10.6511C34.5627 10.8894 34.6839 11.2374 34.6839 11.6951C34.6839 11.9585 34.6393 12.2061 34.55 12.4381C34.4607 12.6701 34.3331 12.8708 34.1672 13.0401C34.0077 13.2094 33.8163 13.3442 33.593 13.4445C33.3761 13.5386 33.14 13.5856 32.8849 13.5856H30.3298V7.02061ZM32.6456 12.899C33.0156 12.899 33.3059 12.8175 33.5164 12.6545C33.727 12.4914 33.8322 12.2406 33.8322 11.902V11.5164C33.8322 11.1841 33.727 10.9364 33.5164 10.7734C33.3059 10.6041 33.0156 10.5194 32.6456 10.5194H31.1336V12.899H32.6456ZM32.5116 9.87045C32.8498 9.87045 33.1145 9.79834 33.3059 9.65413C33.4973 9.50364 33.593 9.27791 33.593 8.97694V8.61013C33.593 8.30915 33.4973 8.08342 33.3059 7.93294C33.1145 7.78245 32.8498 7.70721 32.5116 7.70721H31.1336V9.87045H32.5116Z" fill="#E0E1E1"/>
<path d="M38.154 13.6985C37.6372 13.6985 37.1906 13.6138 36.8142 13.4445C36.4442 13.2689 36.1284 13.0369 35.8668 12.7485L36.3836 12.3065C36.6196 12.551 36.878 12.7391 37.1587 12.8708C37.4394 13.0025 37.7776 13.0683 38.1731 13.0683C38.5559 13.0683 38.8685 13.0025 39.1109 12.8708C39.3597 12.7328 39.4842 12.5196 39.4842 12.2312C39.4842 12.1058 39.4586 12.0023 39.4076 11.9208C39.3629 11.833 39.2991 11.7641 39.2162 11.7139C39.1333 11.6637 39.0408 11.6261 38.9387 11.601C38.8366 11.5697 38.7282 11.5446 38.6133 11.5258L37.8382 11.4129C37.6659 11.3879 37.4777 11.3534 37.2736 11.3095C37.0758 11.2656 36.894 11.1966 36.7281 11.1026C36.5622 11.0022 36.4219 10.8706 36.307 10.7075C36.1986 10.5445 36.1444 10.3313 36.1444 10.068C36.1444 9.82342 36.1922 9.61337 36.2879 9.4378C36.39 9.25596 36.5303 9.10548 36.709 8.98634C36.8876 8.86094 37.0981 8.77002 37.3406 8.71359C37.583 8.65088 37.8477 8.61953 38.1348 8.61953C38.5814 8.61953 38.9674 8.6885 39.2928 8.82645C39.6245 8.9644 39.9084 9.15564 40.1445 9.40018L39.6468 9.86105C39.5894 9.79207 39.516 9.7231 39.4267 9.65413C39.3438 9.57888 39.2385 9.51305 39.1109 9.45661C38.9897 9.39391 38.8462 9.34375 38.6803 9.30613C38.5144 9.2685 38.323 9.24969 38.1061 9.24969C37.717 9.24969 37.4171 9.31553 37.2066 9.44721C37.0024 9.57888 36.9004 9.77013 36.9004 10.0209C36.9004 10.1463 36.9227 10.2529 36.9673 10.3407C37.0184 10.4222 37.0854 10.4881 37.1683 10.5382C37.2512 10.5884 37.3437 10.6292 37.4458 10.6605C37.5543 10.6856 37.6627 10.7075 37.7712 10.7263L38.5463 10.8392C38.725 10.8643 38.9132 10.8988 39.1109 10.9427C39.3087 10.9866 39.4905 11.0587 39.6564 11.159C39.8223 11.253 39.9594 11.3816 40.0679 11.5446C40.1827 11.7076 40.2402 11.9208 40.2402 12.1842C40.2402 12.667 40.0488 13.0401 39.666 13.3034C39.2896 13.5668 38.7856 13.6985 38.154 13.6985Z" fill="#E0E1E1"/>
<path d="M0 25.8929C0 27.6083 1.56771 29 3.5 29H38.5C40.4323 29 42 27.6083 42 25.8929V14.5H0V25.8929ZM14 21.4911C14 21.0638 14.3937 20.7143 14.875 20.7143H24.7917C25.2729 20.7143 25.6667 21.0638 25.6667 21.4911V24.0804C25.6667 24.5076 25.2729 24.8571 24.7917 24.8571H14.875C14.3937 24.8571 14 24.5076 14 24.0804V21.4911ZM4.66667 21.4911C4.66667 21.0638 5.06042 20.7143 5.54167 20.7143H10.7917C11.2729 20.7143 11.6667 21.0638 11.6667 21.4911V24.0804C11.6667 24.5076 11.2729 24.8571 10.7917 24.8571H5.54167C5.06042 24.8571 4.66667 24.5076 4.66667 24.0804V21.4911ZM42 3.10714V6.21429H0V3.10714C0 1.39174 1.56771 0 3.5 0H38.5C40.4323 0 42 1.39174 42 3.10714Z" fill="#E0E1E1"/>
</svg>
