<svg width="33" height="23" viewBox="0 0 33 23" fill="none" xmlns="http://www.w3.org/2000/svg">
<path d="M1.28825 5.56807H3.07025C3.52139 5.56807 3.87478 5.68991 4.13043 5.93359C4.38608 6.17726 4.5139 6.50299 4.5139 6.91078C4.5139 7.22407 4.4362 7.47024 4.28081 7.64926C4.13043 7.82829 3.93494 7.9551 3.69433 8.02969V8.05207C3.99008 8.1217 4.23319 8.25348 4.42367 8.44742C4.61415 8.6364 4.70939 8.9124 4.70939 9.27542C4.70939 9.48429 4.6743 9.68072 4.60413 9.86472C4.53395 10.0487 4.4337 10.2079 4.30337 10.3421C4.17805 10.4764 4.02767 10.5833 3.85223 10.6629C3.6818 10.7375 3.49633 10.7748 3.29582 10.7748H1.28825V5.56807ZM3.10785 10.2302C3.39858 10.2302 3.62666 10.1656 3.79208 10.0363C3.95749 9.90699 4.0402 9.70807 4.0402 9.43953V9.13369C4.0402 8.87013 3.95749 8.6737 3.79208 8.5444C3.62666 8.41013 3.39858 8.34299 3.10785 8.34299H1.91985V10.2302H3.10785ZM3.00258 7.82829C3.26825 7.82829 3.47628 7.7711 3.62666 7.65672C3.77704 7.53737 3.85223 7.35834 3.85223 7.11964V6.82872C3.85223 6.59002 3.77704 6.41099 3.62666 6.29164C3.47628 6.17229 3.26825 6.11261 3.00258 6.11261H1.91985V7.82829H3.00258Z" fill="#E0E1E1"/>
<path d="M6.36815 5.56807V8.69359C6.36815 8.94721 6.37567 9.17348 6.39071 9.3724C6.40575 9.57132 6.44585 9.74288 6.51101 9.8871C6.57618 10.0263 6.67643 10.1333 6.81177 10.2079C6.95213 10.2825 7.14511 10.3197 7.39073 10.3197C7.63635 10.3197 7.82684 10.2825 7.96218 10.2079C8.10253 10.1333 8.20529 10.0263 8.27046 9.8871C8.33562 9.74288 8.37572 9.57132 8.39076 9.3724C8.4058 9.17348 8.41332 8.94721 8.41332 8.69359V5.56807H9.04491V8.5444C9.04491 8.93229 9.02486 9.27045 8.98476 9.55888C8.94967 9.84732 8.87197 10.0885 8.75167 10.2825C8.63638 10.4764 8.46845 10.6231 8.2479 10.7226C8.03235 10.817 7.74663 10.8643 7.39073 10.8643C7.03484 10.8643 6.74661 10.817 6.52605 10.7226C6.31051 10.6231 6.14258 10.4764 6.02228 10.2825C5.90699 10.0885 5.82929 9.84732 5.78919 9.55888C5.7541 9.27045 5.73656 8.93229 5.73656 8.5444V5.56807H6.36815Z" fill="#E0E1E1"/>
<path d="M11.5834 10.7748V8.73088L9.77132 5.56807H10.4931L11.245 6.92569L11.8842 8.11175H11.9142L12.5684 6.92569L13.3203 5.56807H14.0271L12.215 8.73088V10.7748H11.5834Z" fill="#E0E1E1"/>
<path d="M19.3747 5.56807H20.8409C21.4825 5.56807 21.9612 5.78688 22.277 6.2245C22.5928 6.66213 22.7507 7.3111 22.7507 8.17142C22.7507 9.03175 22.5928 9.68072 22.277 10.1183C21.9612 10.556 21.4825 10.7748 20.8409 10.7748H19.3747V5.56807ZM20.8108 10.2302C21.2319 10.2302 21.5477 10.086 21.7582 9.79759C21.9738 9.50915 22.0815 9.10137 22.0815 8.57423V7.76861C22.0815 7.24148 21.9738 6.83369 21.7582 6.54526C21.5477 6.25683 21.2319 6.11261 20.8108 6.11261H20.0063V10.2302H20.8108Z" fill="#E0E1E1"/>
<path d="M23.8305 5.56807H25.6125C26.0637 5.56807 26.4171 5.68991 26.6727 5.93359C26.9284 6.17726 27.0562 6.50299 27.0562 6.91078C27.0562 7.22407 26.9785 7.47024 26.8231 7.64926C26.6727 7.82829 26.4772 7.9551 26.2366 8.02969V8.05207C26.5324 8.1217 26.7755 8.25348 26.9659 8.44742C27.1564 8.6364 27.2517 8.9124 27.2517 9.27542C27.2517 9.48429 27.2166 9.68072 27.1464 9.86472C27.0762 10.0487 26.976 10.2079 26.8456 10.3421C26.7203 10.4764 26.5699 10.5833 26.3945 10.6629C26.2241 10.7375 26.0386 10.7748 25.8381 10.7748H23.8305V5.56807ZM25.6501 10.2302C25.9409 10.2302 26.1689 10.1656 26.3344 10.0363C26.4998 9.90699 26.5825 9.70807 26.5825 9.43953V9.13369C26.5825 8.87013 26.4998 8.6737 26.3344 8.5444C26.1689 8.41013 25.9409 8.34299 25.6501 8.34299H24.4621V10.2302H25.6501ZM25.5449 7.82829C25.8105 7.82829 26.0186 7.7711 26.1689 7.65672C26.3193 7.53737 26.3945 7.35834 26.3945 7.11964V6.82872C26.3945 6.59002 26.3193 6.41099 26.1689 6.29164C26.0186 6.17229 25.8105 6.11261 25.5449 6.11261H24.4621V7.82829H25.5449Z" fill="#E0E1E1"/>
<path d="M29.9781 10.8643C29.5721 10.8643 29.2212 10.7972 28.9255 10.6629C28.6347 10.5236 28.3866 10.3396 28.1811 10.1109L28.5871 9.76029C28.7726 9.95424 28.9756 10.1034 29.1962 10.2079C29.4167 10.3123 29.6824 10.3645 29.9932 10.3645C30.2939 10.3645 30.5395 10.3123 30.73 10.2079C30.9255 10.0985 31.0233 9.92937 31.0233 9.70061C31.0233 9.60115 31.0032 9.5191 30.9631 9.45445C30.928 9.38483 30.8779 9.33013 30.8127 9.29034C30.7476 9.25056 30.6749 9.22072 30.5947 9.20083C30.5145 9.17596 30.4293 9.15607 30.339 9.14115L29.73 9.05164C29.5947 9.03175 29.4468 9.0044 29.2864 8.96959C29.131 8.93478 28.9881 8.88007 28.8578 8.80548C28.7275 8.72591 28.6172 8.62148 28.527 8.49218C28.4417 8.36288 28.3991 8.1938 28.3991 7.98494C28.3991 7.79099 28.4367 7.6244 28.5119 7.48515C28.5921 7.34094 28.7024 7.22159 28.8428 7.1271C28.9831 7.02764 29.1485 6.95553 29.339 6.91078C29.5295 6.86105 29.7375 6.83618 29.9631 6.83618C30.314 6.83618 30.6172 6.89088 30.8729 7.00029C31.1335 7.10969 31.3566 7.26137 31.5421 7.45532L31.1511 7.82083C31.106 7.76613 31.0483 7.71142 30.9781 7.65672C30.913 7.59705 30.8303 7.54483 30.73 7.50007C30.6348 7.45034 30.522 7.41056 30.3917 7.38072C30.2613 7.35088 30.111 7.33596 29.9405 7.33596C29.6348 7.33596 29.3992 7.38818 29.2337 7.49261C29.0733 7.59705 28.9931 7.74872 28.9931 7.94764C28.9931 8.0471 29.0107 8.13164 29.0458 8.20126C29.0859 8.26591 29.1385 8.31813 29.2037 8.35791C29.2688 8.39769 29.3415 8.43002 29.4217 8.45488C29.5069 8.47478 29.5921 8.49218 29.6774 8.5071L30.2864 8.59661C30.4268 8.61651 30.5746 8.64386 30.73 8.67867C30.8854 8.71348 31.0283 8.77067 31.1586 8.85023C31.2889 8.92483 31.3967 9.02678 31.4819 9.15607C31.5721 9.28537 31.6173 9.45445 31.6173 9.66332C31.6173 10.0462 31.4669 10.3421 31.1661 10.551C30.8704 10.7599 30.4744 10.8643 29.9781 10.8643Z" fill="#E0E1E1"/>
<path d="M0 20.5357C0 21.8962 1.23177 23 2.75 23H30.25C31.7682 23 33 21.8962 33 20.5357V11.5H0V20.5357ZM11 17.0446C11 16.7058 11.3094 16.4286 11.6875 16.4286H19.4792C19.8573 16.4286 20.1667 16.7058 20.1667 17.0446V19.0982C20.1667 19.4371 19.8573 19.7143 19.4792 19.7143H11.6875C11.3094 19.7143 11 19.4371 11 19.0982V17.0446ZM3.66667 17.0446C3.66667 16.7058 3.97604 16.4286 4.35417 16.4286H8.47917C8.85729 16.4286 9.16667 16.7058 9.16667 17.0446V19.0982C9.16667 19.4371 8.85729 19.7143 8.47917 19.7143H4.35417C3.97604 19.7143 3.66667 19.4371 3.66667 19.0982V17.0446ZM33 2.46429V4.92857H0V2.46429C0 1.10379 1.23177 0 2.75 0H30.25C31.7682 0 33 1.10379 33 2.46429Z" fill="#E0E1E1"/>
</svg>
