<svg width="33" height="29" viewBox="0 0 33 29" fill="none" xmlns="http://www.w3.org/2000/svg">
<path d="M14.3809 28.9718L11.2359 27.9691C10.9059 27.8672 10.7203 27.4877 10.8131 27.1251L17.8508 0.490705C17.9436 0.128177 18.2891 -0.0757441 18.6191 0.0262167L21.7641 1.02883C22.0941 1.13079 22.2797 1.51031 22.1869 1.87284L15.1492 28.5073C15.0512 28.8698 14.7109 29.0794 14.3809 28.9718ZM8.50328 22.6162L10.7461 19.9879C10.9832 19.7103 10.9678 19.2685 10.7048 19.0136L6.03363 14.499L10.7048 9.98439C10.9678 9.72949 10.9884 9.28766 10.7461 9.0101L8.50328 6.38177C8.27127 6.10988 7.87942 6.09288 7.62679 6.35345L0.197211 14.0005C-0.0657371 14.2667 -0.0657371 14.7256 0.197211 14.9918L7.62679 22.6445C7.87942 22.9051 8.27127 22.8938 8.50328 22.6162ZM25.3732 22.6502L32.8028 14.9975C33.0657 14.7312 33.0657 14.2724 32.8028 14.0062L25.3732 6.34779C25.1257 6.09288 24.7339 6.10421 24.4967 6.37611L22.2539 9.00443C22.0168 9.28199 22.0322 9.72382 22.2952 9.97872L26.9664 14.499L22.2952 19.0136C22.0322 19.2685 22.0116 19.7103 22.2539 19.9879L24.4967 22.6162C24.7287 22.8938 25.1206 22.9051 25.3732 22.6502Z" fill="#E0E1E1"/>
</svg>
