<svg width="40" height="38" viewBox="0 0 40 38" fill="none" xmlns="http://www.w3.org/2000/svg">
<path d="M31.9 20.4884C31.9666 20.0134 32 19.5225 32 19C32 18.4934 31.9666 17.9867 31.8833 17.5117L35.2666 15.01C35.5666 14.7884 35.65 14.3609 35.4666 14.0442L32.2666 8.78755C32.0666 8.43922 31.65 8.32838 31.2833 8.43921L27.3 9.95921C26.4666 9.35755 25.5833 8.85088 24.6 8.47088L24 4.44922C23.9333 4.06922 23.6 3.80005 23.2 3.80005H16.8C16.4 3.80005 16.0833 4.06922 16.0166 4.44922L15.4166 8.47088C14.4333 8.85088 13.5333 9.37338 12.7166 9.95921L8.73331 8.43921C8.36665 8.31255 7.94998 8.43922 7.74998 8.78755L4.56665 14.0442C4.36665 14.3767 4.43331 14.7884 4.76665 15.01L8.14998 17.5117C8.06665 17.9867 7.99998 18.5092 7.99998 19C7.99998 19.4909 8.03331 20.0134 8.11665 20.4884L4.73331 22.99C4.43331 23.2117 4.34998 23.6392 4.53331 23.9559L7.73331 29.2125C7.93331 29.5609 8.34998 29.6717 8.71665 29.5609L12.7 28.0409C13.5333 28.6425 14.4166 29.1492 15.4 29.5292L16 33.5509C16.0833 33.9309 16.4 34.2 16.8 34.2H23.2C23.6 34.2 23.9333 33.9309 23.9833 33.5509L24.5833 29.5292C25.5666 29.1492 26.4666 28.6425 27.2833 28.0409L31.2666 29.5609C31.6333 29.6875 32.05 29.5609 32.25 29.2125L35.45 23.9559C35.65 23.6075 35.5666 23.2117 35.25 22.99L31.9 20.4884ZM20 24.7C16.7 24.7 14 22.135 14 19C14 15.865 16.7 13.3 20 13.3C23.3 13.3 26 15.865 26 19C26 22.135 23.3 24.7 20 24.7Z" fill="#E0E1E1"/>
</svg>
