<svg width="40" height="57" viewBox="0 0 40 57" fill="none" xmlns="http://www.w3.org/2000/svg">
<path d="M19.8333 36.8333C22.8391 36.8333 25.7218 35.6393 27.8472 33.5139C29.9726 31.3885 31.1667 28.5058 31.1667 25.5V11.3333C31.1667 8.32755 29.9726 5.44487 27.8472 3.31946C25.7218 1.19404 22.8391 0 19.8333 0C16.8275 0 13.9449 1.19404 11.8195 3.31946C9.69404 5.44487 8.5 8.32755 8.5 11.3333V25.5C8.5 28.5058 9.69404 31.3885 11.8195 33.5139C13.9449 35.6393 16.8275 36.8333 19.8333 36.8333Z" fill="#6A5988"/>
<path d="M39.6667 25.5001C39.6667 24.7486 39.3682 24.028 38.8368 23.4966C38.3055 22.9653 37.5848 22.6667 36.8333 22.6667C36.0819 22.6667 35.3612 22.9653 34.8299 23.4966C34.2985 24.028 34 24.7486 34 25.5001C34 29.2573 32.5074 32.8607 29.8507 35.5174C27.1939 38.1742 23.5906 39.6667 19.8333 39.6667C16.0761 39.6667 12.4728 38.1742 9.81599 35.5174C7.15922 32.8607 5.66667 29.2573 5.66667 25.5001C5.66667 24.7486 5.36815 24.028 4.8368 23.4966C4.30545 22.9653 3.58478 22.6667 2.83333 22.6667C2.08189 22.6667 1.36122 22.9653 0.829865 23.4966C0.298512 24.028 0 24.7486 0 25.5001C0.0055848 30.2653 1.72665 34.8692 4.84834 38.4696C7.97003 42.0699 12.2836 44.426 17 45.1067V51.0001H11.0217C10.3529 51.0001 9.71148 51.2658 9.23858 51.7387C8.76568 52.2116 8.5 52.853 8.5 53.5217V54.1451C8.5 54.8139 8.76568 55.4553 9.23858 55.9282C9.71148 56.4011 10.3529 56.6667 11.0217 56.6667H28.645C29.3138 56.6667 29.9552 56.4011 30.4281 55.9282C30.901 55.4553 31.1667 54.8139 31.1667 54.1451V53.5217C31.1667 52.853 30.901 52.2116 30.4281 51.7387C29.9552 51.2658 29.3138 51.0001 28.645 51.0001H22.6667V45.1067C27.383 44.426 31.6966 42.0699 34.8183 38.4696C37.94 34.8692 39.6611 30.2653 39.6667 25.5001Z" fill="#6A5988"/>
</svg>
