<svg width="109" height="100" viewBox="0 0 109 100" fill="none" xmlns="http://www.w3.org/2000/svg">
<path d="M61.6982 64.1807L65.5393 53.3819C66.1821 51.5706 64.9446 49.6386 63.1286 49.6386H53.7268C55.4946 46.3782 56.5875 42.6349 56.5875 38.5983V38.5465C62.8875 37.201 66.8732 35.2517 66.8732 33.0781C66.8732 30.7838 62.4857 28.7482 55.6071 27.3855C54.1286 21.7273 51.2679 16.0346 49.0821 13.102C47.5554 11.0492 44.9196 10.411 42.7339 11.584L38.2982 13.9646C36.8518 14.7408 35.1482 14.7408 33.7018 13.9646L29.2661 11.584C27.0804 10.411 24.4446 11.0492 22.9179 13.102C20.7482 16.0346 17.8714 21.7273 16.3929 27.3855C9.53036 28.7482 5.14286 30.7838 5.14286 33.0781C5.14286 35.2517 9.12857 37.201 15.4286 38.5465V38.5983C15.4286 42.6349 16.5214 46.3782 18.2893 49.6386H9.04821C7.2 49.6386 5.9625 51.6569 6.68571 53.4854L10.8321 63.8702C4.3875 67.8896 0 75.2901 0 83.8636V91.5918C0 95.8527 3.23036 99.32 7.2 99.32H64.8C68.7696 99.32 72 95.8527 72 91.5918V83.8636C72 75.5143 67.8536 68.2691 61.6982 64.1807ZM28.2857 93.7998L21.6 60.6789L29.5714 66.1991L33.4286 73.0993L28.2857 93.7998ZM43.7143 93.7998L38.5714 73.0993L42.4286 66.1991L50.4 60.6789L43.7143 93.7998ZM50.4161 42.3071C49.7893 44.3599 49.2911 46.5507 47.7643 48.0688C46.1411 49.6731 40.05 51.9329 37.4786 43.7562C37.0286 42.3071 35.0036 42.3071 34.5375 43.7562C31.8054 52.4159 25.5375 49.3453 24.2518 48.0688C22.725 46.5507 22.2107 44.3599 21.6 42.3071C21.4714 41.8759 20.5875 41.3239 20.5875 41.3066V39.4435C25.1357 40.0646 30.3911 40.4441 36.0161 40.4441C41.6411 40.4441 46.8964 40.0818 51.4446 39.4435V41.3066C51.4286 41.3239 50.5446 41.8586 50.4161 42.3071Z" fill="#212121"/>
<path d="M90.5278 37C88.4823 36.99 86.8239 35.3422 86.8037 33.3H94.2148C94.2193 33.7945 94.1255 34.2849 93.9388 34.743C93.4524 35.8565 92.4597 36.6687 91.2708 36.926H91.2615H91.2374H91.2189H91.1985H91.1855C90.9689 36.9708 90.7488 36.9956 90.5278 37ZM105.35 31.45H75.7056V27.75L79.4111 25.9V15.725C79.3135 13.1149 79.9038 10.5249 81.1231 8.214C82.3367 6.07079 84.4112 4.54893 86.8222 4.033V0H94.2334V4.033C99.0117 5.1689 101.644 9.3203 101.644 15.725V25.9L105.35 27.75V31.45ZM109 14.8H105.294C105.122 10.0157 102.819 5.55834 99.0135 2.6455L101.644 0C103.861 1.72139 105.651 3.92775 106.879 6.4491C108.148 9.05951 108.87 11.9012 109 14.8ZM75.7056 14.8H72C72.1304 11.9012 72.8522 9.05949 74.1214 6.4491C75.3488 3.92775 77.1395 1.72139 79.3555 0L81.9865 2.6455C78.1811 5.55799 75.8776 10.0156 75.7056 14.8Z" fill="#C64A49"/>
</svg>
