<svg width="52" height="64" viewBox="0 0 52 64" fill="none" xmlns="http://www.w3.org/2000/svg">
<path d="M44.5598 38.5368L47.3339 30.7116C47.7982 29.399 46.9045 27.999 45.5929 27.999H38.8027C40.0795 25.6364 40.8687 22.9238 40.8687 19.9987V19.9612C45.4187 18.9862 48.2973 17.5737 48.2973 15.9986C48.2973 14.3361 45.1286 12.861 40.1607 11.8735C39.0929 7.7734 37.0268 3.64828 35.4482 1.52322C34.3455 0.0356789 32.442 -0.426834 30.8634 0.42319L27.6598 2.14824C26.6152 2.71076 25.3848 2.71076 24.3402 2.14824L21.1366 0.42319C19.558 -0.426834 17.6545 0.0356789 16.5518 1.52322C14.9848 3.64828 12.9071 7.7734 11.8393 11.8735C6.88304 12.861 3.71429 14.3361 3.71429 15.9986C3.71429 17.5737 6.59286 18.9862 11.1429 19.9612V19.9987C11.1429 22.9238 11.9321 25.6364 13.2089 27.999H6.53482C5.2 27.999 4.30625 29.4615 4.82857 30.7866L7.82321 38.3118C3.16875 41.2244 0 46.587 0 52.7997V58.3998C0 61.4874 2.33304 64 5.2 64H46.8C49.667 64 52 61.4874 52 58.3998V52.7997C52 46.7495 49.0054 41.4994 44.5598 38.5368ZM20.4286 59.9999L15.6 35.9992L21.3571 39.9993L24.1429 44.9995L20.4286 59.9999ZM31.5714 59.9999L27.8571 44.9995L30.6429 39.9993L36.4 35.9992L31.5714 59.9999ZM36.4116 22.6863C35.9589 24.1739 35.5991 25.7614 34.4964 26.8614C33.3241 28.024 28.925 29.6615 27.0679 23.7364C26.7429 22.6863 25.2804 22.6863 24.9437 23.7364C22.9705 30.0115 18.4437 27.7865 17.5152 26.8614C16.4125 25.7614 16.0411 24.1739 15.6 22.6863C15.5071 22.3738 14.8688 21.9738 14.8688 21.9613V20.6113C18.1536 21.0613 21.9491 21.3363 26.0116 21.3363C30.0741 21.3363 33.8696 21.0738 37.1545 20.6113V21.9613C37.1429 21.9738 36.5045 22.3613 36.4116 22.6863Z" fill="#E0E1E1"/>
</svg>
