<svg width="56" height="56" viewBox="0 0 56 56" fill="none" xmlns="http://www.w3.org/2000/svg">
<circle cx="28" cy="28" r="28" fill="#6A5988"/>
<path d="M36.5 40.2308H40.75C41.8772 40.2308 42.9582 39.8762 43.7552 39.2451C44.5522 38.6139 45 37.7579 45 36.8654V19.3654C45 18.4728 44.5522 17.6168 43.7552 16.9857C42.9582 16.3546 41.8772 16 40.75 16H15.25C14.1228 16 13.0418 16.3546 12.2448 16.9857C11.4478 17.6168 11 18.4728 11 19.3654V36.8654C11 37.7579 11.4478 38.6139 12.2448 39.2451C13.0418 39.8762 14.1228 40.2308 15.25 40.2308H19.5" stroke="#E0E1E1" stroke-width="3" stroke-linecap="round" stroke-linejoin="round"/>
<path d="M19.5 32.1539L28 25.4231L36.5 32.1539" stroke="#E0E1E1" stroke-width="3" stroke-linecap="round" stroke-linejoin="round"/>
<path d="M28 51.0001V26.7693" stroke="#E0E1E1" stroke-width="3" stroke-linecap="round" stroke-linejoin="round"/>
</svg>
