<svg width="56" height="56" viewBox="0 0 56 56" fill="none" xmlns="http://www.w3.org/2000/svg">
<path d="M44 35C41.174 35 38.5766 35.8552 36.5262 37.2854L23.7155 30.2795C24.0949 28.7779 24.0949 27.222 23.7155 25.7204L36.5262 18.7145C38.5766 20.1448 41.174 21 44 21C50.6274 21 56 16.299 56 10.5C56 4.70105 50.6274 0 44 0C37.3726 0 32 4.70105 32 10.5C32 11.2829 32.0988 12.0455 32.2845 12.7795L19.4737 19.7854C17.4234 18.3552 14.826 17.5 12 17.5C5.37262 17.5 0 22.201 0 28C0 33.799 5.37262 38.5 12 38.5C14.826 38.5 17.4234 37.6448 19.4737 36.2146L32.2845 43.2205C32.0951 43.969 31.9997 44.7334 32 45.5C32 51.299 37.3726 56 44 56C50.6274 56 56 51.299 56 45.5C56 39.701 50.6274 35 44 35Z" fill="#212121"/>
</svg>
