<svg width="62" height="69" viewBox="0 0 62 69" fill="none" xmlns="http://www.w3.org/2000/svg">
<path d="M60.0225 52.9599C59.6462 52.2774 59.2699 51.5948 59.2699 50.9123C59.2699 49.5471 58.5172 48.5233 57.3883 47.4995C57.012 47.1582 56.2593 46.8169 55.883 46.8169C58.1409 40.6739 54.7541 34.5309 50.9909 30.0943C47.9804 25.9989 43.4646 22.9274 43.8409 17.467C43.8409 10.9827 44.5935 -0.962029 31.4224 0.0618058C17.875 0.744362 21.6382 13.3717 21.2619 17.8083C21.2619 21.5623 19.3803 25.3164 16.3698 28.3879C15.6171 29.0705 14.8645 30.0943 14.4882 30.7768C10.725 34.8722 8.84344 40.3326 8.84344 45.4518C8.09081 46.1344 7.33817 46.8169 6.96186 47.4995C6.58554 47.8408 6.20923 48.182 6.20923 48.5233C5.83291 48.8646 5.08028 49.2059 4.32764 49.5471C2.82238 49.8884 1.69342 50.571 0.940791 51.9361C0.564475 52.9599 0.188158 54.325 0.564475 55.6901C0.940792 56.3727 0.940792 57.0553 0.564475 58.0791C-0.188158 59.4442 -0.188158 61.1506 0.564475 62.857C1.69343 64.2221 3.57501 64.5634 6.20923 64.9047C8.09081 64.9047 10.3487 65.5872 12.2303 66.2698C14.1119 67.2936 16.3698 67.9762 18.6277 67.9762C19.7566 67.9762 21.2619 67.6349 22.3908 67.2936C23.5198 66.6111 24.2724 65.9285 24.6487 64.9047C26.154 64.9047 28.4119 64.2221 31.0461 64.2221C33.304 64.2221 35.5619 64.9047 38.5725 64.5634C38.5725 64.9047 38.5725 65.2459 38.9488 65.5872C39.7014 67.2936 41.583 68.6587 43.8409 69H44.5935C47.6041 68.6587 50.6146 67.2936 52.4962 65.2459C54.0014 63.8808 55.883 62.857 57.7646 62.1744C60.0225 61.1506 61.5278 60.468 61.9041 58.7617C62.2804 56.3727 61.5278 55.0076 60.0225 52.9599ZM34.0567 9.27632C36.3146 9.6176 38.1961 11.324 37.8198 13.3717C37.8198 14.3955 37.4435 15.4193 36.6909 16.4432C36.6909 16.4432 36.6909 16.4432 36.3146 16.4432C35.5619 16.1019 35.1856 16.1019 34.8093 15.7606C35.1856 15.4193 35.1856 14.7368 35.5619 14.0542C35.5619 12.6891 34.8093 11.6653 34.0567 11.6653C32.9277 11.6653 32.1751 12.6891 32.1751 14.0542V14.3955C31.7988 14.0542 31.0461 14.0542 30.6698 13.7129V13.3717C30.2935 11.6653 31.7988 9.6176 34.0567 9.27632ZM32.9277 16.1019C33.304 16.4432 34.0567 16.7844 34.433 16.7844C34.8093 16.7844 35.5619 17.1257 35.9382 17.467C36.6909 17.8083 37.4435 18.1496 37.4435 19.1734C37.4435 20.1972 36.3146 21.2211 34.0567 21.9036C33.304 22.2449 32.9277 22.2449 32.5514 22.5862C31.4224 23.2687 30.2935 23.61 28.7882 23.61C27.6593 23.61 26.5303 22.9274 25.7777 22.2449C25.4014 21.9036 25.0251 21.5623 24.2724 21.2211C23.8961 20.8798 23.1435 20.1972 22.7672 19.1734C22.7672 18.8321 23.1435 18.4908 23.5198 18.1496C24.6487 17.467 25.0251 17.1257 25.4014 16.7844L25.7777 16.4432C26.5303 15.4193 28.0356 14.7368 29.5409 14.7368C30.6698 15.078 31.7988 15.4193 32.9277 16.1019ZM25.0251 9.95887C26.5303 9.95887 27.6593 11.324 28.0356 13.7129V14.3955C27.6593 14.3955 26.9066 14.7368 26.5303 15.078C26.5303 15.078 26.5303 14.7368 26.5303 14.3955C26.5303 13.3717 25.7777 12.3478 25.0251 12.6891C24.2724 12.6891 23.8961 13.7129 23.8961 14.7368C23.8961 15.4193 24.2724 15.7606 24.6487 16.1019C25.0251 16.4432 24.2724 16.4432 23.8961 16.4432C23.1435 15.7606 22.3908 14.7368 22.3908 13.7129C22.3908 11.6653 23.5198 9.95887 25.0251 9.95887ZM21.2619 64.9047C18.6277 65.9285 15.2408 65.5872 12.9829 64.2221C10.725 63.1983 8.84344 62.857 6.20923 62.857C4.32764 62.5157 2.44606 62.5157 2.06974 61.8332C1.69343 61.1506 1.69343 60.1268 2.44606 58.4204C2.82238 57.3965 2.82238 56.3727 2.44606 55.3489C2.06974 54.325 2.06974 53.6425 2.44606 52.6186C2.82238 51.5948 3.57501 51.2535 4.70396 50.9123C5.83291 50.571 6.58554 50.2297 7.33817 49.5471C7.71449 49.2059 8.09081 48.8646 8.46713 48.182C9.59608 46.8169 10.3487 46.1344 11.4777 46.1344C13.7356 46.4756 15.6171 49.5471 17.1224 52.6186C17.875 53.6425 18.6277 55.0076 19.7566 56.0314C21.2619 57.7378 23.1435 60.1268 23.1435 61.4919C23.1435 63.1983 22.3908 64.2221 21.2619 64.9047ZM39.7014 57.3965C39.7014 57.7378 39.7014 57.7378 39.3251 58.0791C34.8093 61.1506 28.7882 61.4919 23.8961 59.1029C23.1435 58.0791 22.3908 57.0553 21.6382 56.0314C25.0251 55.6902 24.2724 51.5948 17.1224 47.4995C9.59608 43.0629 14.8645 34.8722 17.4987 31.1181C17.875 30.7768 17.875 31.1181 16.3698 33.8483C15.2408 35.896 12.9829 41.0152 15.9935 44.7692C15.9935 42.039 16.7461 39.3088 17.875 36.5786C20.5093 32.142 22.3908 27.0228 23.5198 21.9036C23.8961 22.2449 23.8961 22.2449 24.2724 22.2449C24.6487 22.5862 25.0251 22.9274 25.4014 22.9274C26.154 23.9513 27.6593 24.2926 28.7882 24.2926H29.1645C30.6698 24.2926 32.1751 23.9513 33.304 22.9274C33.6803 22.5862 34.0567 22.2449 34.8093 22.2449C35.9382 21.9036 37.0672 21.2211 38.1961 20.1972C39.7014 24.6338 41.2067 28.7292 43.4646 32.4832C44.9698 35.2135 46.0988 37.9437 46.8514 41.0152C47.9804 41.0152 49.4856 41.3565 50.6146 42.039C53.6251 43.4041 54.7541 44.428 54.3778 46.1344C54.0014 46.1344 54.0014 46.1344 53.6251 46.1344C53.6251 45.1105 52.8725 44.0867 50.2383 43.0629C47.6041 42.039 45.3462 42.039 44.5935 44.428C44.2172 44.428 43.8409 44.7692 43.4646 44.7692C40.454 46.1344 40.454 49.8884 40.0777 53.6425C40.454 55.0076 40.0777 56.0314 39.7014 57.3965ZM57.012 59.4442C54.7541 60.1268 52.8725 61.4919 51.3672 63.1983C49.862 65.2459 47.2277 66.6111 44.2172 66.2698C42.7119 66.2698 41.2067 65.2459 40.8304 63.8808C40.454 61.8332 40.454 59.7855 41.583 57.7378C41.9593 56.3727 42.3356 55.3489 42.7119 53.9838C43.0883 49.8884 43.0883 47.4995 44.9698 46.4756C44.9698 48.182 46.0988 49.2059 47.6041 49.8884C49.4856 49.8884 51.3672 49.5471 52.8725 48.182H53.6251C54.7541 48.182 55.5067 48.182 56.2593 48.8646C57.012 49.5471 57.3883 50.571 57.3883 51.2535C57.3883 52.2774 58.1409 53.3012 58.5172 54.325C60.3988 56.0314 60.3988 57.0553 60.3988 57.3965C60.0225 58.0791 58.5172 58.7617 57.012 59.4442ZM23.1435 18.4908C22.7672 18.4908 22.7672 18.4908 22.7672 18.8321C22.7672 18.8321 22.7672 19.1734 23.1435 19.1734C23.5198 19.1734 23.5198 19.5147 23.5198 19.5147C24.6487 20.8798 26.5303 21.5623 28.7882 21.9036C30.6698 21.5623 32.5514 21.2211 34.433 19.8559C35.1856 19.5147 35.9382 19.1734 36.6909 18.8321C37.0672 18.8321 37.0672 18.4908 37.0672 18.4908C37.0672 18.1496 37.0672 18.1496 36.6909 18.1496C35.9382 18.4908 34.8093 18.8321 34.0567 19.1734C32.5514 20.1972 30.6698 20.8798 28.7882 20.8798C26.9066 20.8798 25.4014 19.8559 24.2724 18.8321C23.8961 18.8321 23.5198 18.4908 23.1435 18.4908Z" fill="#111111"/>
</svg>
