<svg width="479" height="688" viewBox="0 0 479 688" fill="none" xmlns="http://www.w3.org/2000/svg">
<path d="M19.6451 669.54V602.777H60.7744V609.759H27.6797V632.237H59.6266V639.219H27.6797V662.558H60.7744V669.54H19.6451ZM107.605 669.54C104.608 669.54 102.472 668.775 101.197 667.245C99.9215 665.714 99.1245 663.801 98.8056 661.506H98.3274C97.2434 664.375 95.4898 666.639 93.0667 668.297C90.7073 669.891 87.519 670.688 83.5017 670.688C78.3366 670.688 74.2237 669.349 71.1629 666.671C68.1021 663.992 66.5717 660.326 66.5717 655.671C66.5717 651.08 68.2296 647.541 71.5455 645.054C74.9251 642.567 80.3452 641.324 87.8059 641.324H98.3274V636.445C98.3274 632.811 97.3071 630.101 95.2666 628.315C93.2261 626.466 90.3247 625.541 86.5625 625.541C83.2466 625.541 80.5365 626.211 78.4323 627.55C76.328 628.825 74.6382 630.579 73.3628 632.811L68.1977 628.985C68.8354 627.709 69.6963 626.466 70.7803 625.254C71.8643 624.043 73.2034 622.991 74.7976 622.098C76.3917 621.141 78.2091 620.408 80.2496 619.898C82.2901 619.324 84.5538 619.037 87.0407 619.037C92.8435 619.037 97.4347 620.504 100.814 623.437C104.258 626.37 105.979 630.451 105.979 635.68V662.845H112.866V669.54H107.605ZM84.8408 664.279C86.8175 664.279 88.603 664.056 90.1972 663.61C91.8551 663.1 93.2898 662.462 94.5014 661.697C95.713 660.868 96.6376 659.911 97.2752 658.827C97.9767 657.68 98.3274 656.468 98.3274 655.193V647.062H87.8059C83.2147 647.062 79.867 647.7 77.7627 648.975C75.6584 650.251 74.6063 652.1 74.6063 654.523V656.532C74.6063 659.082 75.499 661.027 77.2845 662.366C79.1337 663.642 81.6525 664.279 84.8408 664.279ZM116.846 663.036H131.289V626.689H116.846V620.185H138.941V632.619H139.419C140.44 628.73 142.353 625.701 145.158 623.533C148.028 621.301 151.663 620.185 156.062 620.185H162.949V627.837H153.671C149.271 627.837 145.7 629.112 142.958 631.663C140.28 634.214 138.941 637.561 138.941 641.706V663.036H158.071V669.54H116.846V663.036ZM168.077 669.54V620.185H175.729V628.22H176.111C176.622 627.008 177.259 625.86 178.024 624.776C178.79 623.628 179.714 622.64 180.798 621.811C181.946 620.982 183.285 620.312 184.816 619.802C186.346 619.292 188.131 619.037 190.172 619.037C195.337 619.037 199.482 620.695 202.606 624.011C205.731 627.263 207.293 631.886 207.293 637.88V669.54H199.641V639.219C199.641 634.692 198.653 631.344 196.676 629.176C194.699 626.944 191.798 625.828 187.972 625.828C186.442 625.828 184.943 626.02 183.476 626.402C182.01 626.785 180.703 627.359 179.555 628.124C178.407 628.889 177.482 629.877 176.781 631.089C176.08 632.301 175.729 633.703 175.729 635.298V669.54H168.077ZM259.289 669.54H214.717V661.314L237.003 641.228C240.255 638.295 242.933 635.298 245.037 632.237C247.142 629.112 248.194 625.828 248.194 622.385V621.237C248.194 617.22 247.142 614.127 245.037 611.959C242.933 609.727 239.809 608.611 235.664 608.611C231.583 608.611 228.426 609.663 226.195 611.768C224.026 613.808 222.4 616.55 221.316 619.994L214.143 617.315C214.78 615.339 215.641 613.426 216.725 611.576C217.873 609.663 219.308 607.974 221.029 606.507C222.751 605.04 224.824 603.861 227.247 602.968C229.734 602.075 232.603 601.629 235.855 601.629C239.171 601.629 242.104 602.107 244.655 603.064C247.269 604.02 249.437 605.359 251.159 607.081C252.945 608.803 254.284 610.843 255.176 613.203C256.133 615.562 256.611 618.144 256.611 620.95C256.611 623.501 256.229 625.892 255.463 628.124C254.762 630.356 253.742 632.492 252.403 634.532C251.127 636.573 249.565 638.582 247.716 640.558C245.93 642.471 243.922 644.384 241.69 646.297L223.038 662.558H259.289V669.54ZM265.756 669.54V602.777H290.051C296.236 602.777 300.955 604.467 304.207 607.846C307.459 611.226 309.085 615.944 309.085 622.002C309.085 628.06 307.459 632.779 304.207 636.158C300.955 639.538 296.236 641.228 290.051 641.228H273.791V669.54H265.756ZM273.791 634.245H289.86C293.239 634.245 295.854 633.416 297.703 631.759C299.616 630.037 300.573 627.614 300.573 624.489V619.515C300.573 616.391 299.616 614 297.703 612.342C295.854 610.62 293.239 609.759 289.86 609.759H273.791V634.245ZM335.065 670.688C331.621 670.688 328.497 670.082 325.691 668.871C322.949 667.659 320.59 665.937 318.613 663.706C316.7 661.41 315.233 658.7 314.213 655.575C313.193 652.387 312.683 648.816 312.683 644.863C312.683 640.973 313.193 637.434 314.213 634.245C315.233 631.057 316.7 628.347 318.613 626.115C320.59 623.82 322.949 622.066 325.691 620.854C328.497 619.643 331.621 619.037 335.065 619.037C338.508 619.037 341.601 619.643 344.343 620.854C347.148 622.066 349.508 623.82 351.421 626.115C353.398 628.347 354.896 631.057 355.916 634.245C356.937 637.434 357.447 640.973 357.447 644.863C357.447 648.816 356.937 652.387 355.916 655.575C354.896 658.7 353.398 661.41 351.421 663.706C349.508 665.937 347.148 667.659 344.343 668.871C341.601 670.082 338.508 670.688 335.065 670.688ZM335.065 664.088C339.337 664.088 342.78 662.813 345.395 660.262C348.009 657.711 349.317 653.758 349.317 648.402V641.324C349.317 635.967 348.009 632.014 345.395 629.463C342.78 626.912 339.337 625.637 335.065 625.637C330.792 625.637 327.349 626.912 324.735 629.463C322.12 632.014 320.813 635.967 320.813 641.324V648.402C320.813 653.758 322.12 657.711 324.735 660.262C327.349 662.813 330.792 664.088 335.065 664.088ZM384.861 670.688C379.696 670.688 375.232 669.827 371.47 668.105C367.771 666.32 364.615 663.961 362.001 661.027L367.166 656.532C369.525 659.019 372.108 660.932 374.913 662.271C377.719 663.61 381.099 664.279 385.052 664.279C388.878 664.279 392.003 663.61 394.426 662.271C396.913 660.868 398.156 658.7 398.156 655.767C398.156 654.491 397.901 653.439 397.391 652.61C396.945 651.717 396.307 651.016 395.478 650.506C394.649 649.996 393.724 649.613 392.704 649.358C391.684 649.039 390.6 648.784 389.452 648.593L381.704 647.445C379.983 647.19 378.102 646.839 376.061 646.393C374.084 645.947 372.267 645.245 370.609 644.289C368.951 643.268 367.548 641.929 366.4 640.271C365.316 638.613 364.774 636.445 364.774 633.767C364.774 631.28 365.253 629.144 366.209 627.359C367.229 625.509 368.632 623.979 370.418 622.767C372.203 621.492 374.307 620.568 376.731 619.994C379.154 619.356 381.8 619.037 384.67 619.037C389.133 619.037 392.991 619.739 396.243 621.141C399.559 622.544 402.397 624.489 404.756 626.976L399.782 631.663C399.208 630.961 398.475 630.26 397.582 629.559C396.753 628.793 395.701 628.124 394.426 627.55C393.214 626.912 391.779 626.402 390.122 626.02C388.464 625.637 386.551 625.446 384.383 625.446C380.493 625.446 377.496 626.115 375.392 627.454C373.351 628.793 372.331 630.738 372.331 633.289C372.331 634.564 372.554 635.648 373 636.541C373.51 637.37 374.18 638.04 375.009 638.55C375.838 639.06 376.762 639.474 377.783 639.793C378.867 640.048 379.951 640.271 381.035 640.463L388.782 641.61C390.568 641.866 392.449 642.216 394.426 642.663C396.403 643.109 398.22 643.842 399.878 644.863C401.536 645.819 402.907 647.126 403.991 648.784C405.139 650.442 405.712 652.61 405.712 655.288C405.712 660.198 403.799 663.992 399.973 666.671C396.211 669.349 391.174 670.688 384.861 670.688ZM435.9 669.54C432.138 669.54 429.364 668.488 427.579 666.384C425.857 664.279 424.996 661.569 424.996 658.254V626.689H408.545V620.185H420.788C422.446 620.185 423.593 619.866 424.231 619.228C424.933 618.527 425.283 617.347 425.283 615.689V602.777H432.648V620.185H455.126V626.689H432.648V663.036H455.126V669.54H435.9Z" fill="#313131"/>
<path d="M409.82 352.211L435.334 280.691C439.604 268.695 431.384 255.899 419.321 255.899H356.871C368.614 234.306 375.873 209.515 375.873 182.781V182.438C417.72 173.526 444.194 160.616 444.194 146.221C444.194 131.026 415.051 117.545 369.361 108.519C359.54 71.0457 340.538 33.3438 326.02 13.9216C315.879 0.326091 298.371 -3.90109 283.853 3.86779L254.39 19.634C244.782 24.7752 233.466 24.7752 223.859 19.634L194.395 3.86779C179.877 -3.90109 162.37 0.326091 152.228 13.9216C137.817 33.3438 118.708 71.0457 108.887 108.519C63.3038 117.545 34.1606 131.026 34.1606 146.221C34.1606 160.616 60.635 173.526 102.482 182.438V182.781C102.482 209.515 109.741 234.306 121.484 255.899H60.1013C47.8248 255.899 39.6049 269.266 44.4088 281.377L71.9507 350.154C29.1433 376.774 0 425.787 0 482.568V533.751C0 561.97 21.4571 584.934 47.8248 584.934H430.423C456.791 584.934 478.248 561.97 478.248 533.751V482.568C478.248 427.272 450.706 379.287 409.82 352.211ZM187.883 548.375L143.474 329.018L196.423 365.578L222.044 411.277L187.883 548.375ZM290.365 548.375L256.204 411.277L281.825 365.578L334.774 329.018L290.365 548.375ZM334.881 207.344C330.717 220.939 327.408 235.449 317.266 245.503C306.485 256.128 266.026 271.094 248.945 216.941C245.956 207.344 232.505 207.344 229.41 216.941C211.262 274.293 169.629 253.957 161.089 245.503C150.947 235.449 147.531 220.939 143.474 207.344C142.62 204.488 136.749 200.832 136.749 200.718V188.379C166.96 192.492 201.868 195.005 239.231 195.005C276.594 195.005 311.502 192.606 341.713 188.379V200.718C341.606 200.832 335.735 204.373 334.881 207.344Z" fill="#313131"/>
<path d="M310.628 126.814L316.543 122.278L305.134 107.323L315.558 96.1814C315.759 95.9666 315.935 95.7787 316.136 95.5639L332.809 104.315L336.321 97.8837L320.427 89.508C322.688 85.3643 324.048 80.8049 324.415 76.137C324.782 71.4691 324.148 66.801 322.555 62.4471L330.091 54.3927L324.852 49.4904L319.25 55.4775C316.573 51.4291 312.988 48.0745 308.771 45.6729L314.372 39.6857L309.133 34.7834L301.597 42.8379C297.121 41.5467 292.397 41.2428 287.745 41.9469C283.093 42.6511 278.623 44.3467 274.638 46.9185L265.35 31.4817L259.297 35.5359L268.98 51.443L268.402 52.0605L257.977 63.2025L242.324 52.8366L238.138 58.9906L252.878 68.6526C249.838 72.0216 247.516 75.9702 246.058 80.2474L222.786 81.3326L222.939 88.6257L244.467 87.6199C243.958 92.583 244.584 97.5694 246.297 102.199C248.01 106.829 250.765 110.981 254.353 114.337C257.94 117.694 262.266 120.167 266.999 121.569C271.733 122.971 276.75 123.264 281.668 122.426L282.095 143.973L289.382 143.641L288.892 120.324C293.07 118.596 296.865 116.025 300.034 112.774L310.628 126.814ZM256.906 106.358C253.148 101.632 251.249 95.6679 251.554 89.5557C251.86 83.4435 254.35 77.592 258.57 73.0717L273.642 56.9628L289.36 71.6698L256.906 106.358ZM279.425 52.3041C284.183 49.475 289.689 48.2394 295.123 48.7812C300.557 49.3231 305.627 51.6134 309.579 55.3111C313.531 59.0088 316.153 63.9159 317.055 69.3015C317.957 74.6871 317.09 80.263 314.583 85.1986L279.425 52.3041ZM295.247 107.388C291.017 111.899 285.344 114.772 279.265 115.483C273.187 116.194 267.11 114.695 262.145 111.26L294.6 76.5721L310.319 91.2791L295.247 107.388Z" fill="#FFFEFE"/>
</svg>
