<?xml version="1.0" standalone="no"?>
<!DOCTYPE svg PUBLIC "-//W3C//DTD SVG 20010904//EN"
 "http://www.w3.org/TR/2001/REC-SVG-20010904/DTD/svg10.dtd">
<svg version="1.0" xmlns="http://www.w3.org/2000/svg"
 width="748.000000pt" height="748.000000pt" viewBox="0 0 748.000000 748.000000"
 preserveAspectRatio="xMidYMid meet">
<metadata>
Created by potrace 1.14, written by Peter Selinger 2001-2017
</metadata>
<g transform="translate(0.000000,748.000000) scale(0.100000,-0.100000)"
fill="#000000" stroke="none">
<path d="M2963 7463 c-107 -45 -171 -114 -285 -305 -126 -214 -248 -489 -324
-735 -28 -88 -43 -123 -54 -123 -26 0 -249 -57 -355 -90 -204 -65 -378 -169
-420 -251 -19 -36 -19 -102 0 -138 55 -107 271 -215 590 -296 l130 -33 7 -104
c14 -200 68 -407 153 -587 25 -51 45 -95 45 -97 0 -2 -163 -5 -363 -6 l-364
-3 -36 -28 c-44 -33 -75 -90 -83 -151 -6 -40 8 -79 150 -435 86 -215 156 -395
156 -400 0 -4 -37 -34 -82 -66 -111 -78 -298 -268 -380 -385 -126 -178 -227
-412 -279 -645 -21 -94 -23 -129 -26 -553 -5 -493 -4 -501 54 -617 66 -132
185 -236 318 -278 l70 -22 2155 0 c2063 0 2158 1 2215 18 135 42 252 139 317
262 70 135 70 131 65 637 -4 505 -7 528 -83 758 -104 312 -317 612 -569 802
-44 34 -79 66 -77 72 2 6 66 187 143 403 98 276 139 405 139 435 -1 78 -56
162 -123 187 -18 7 -156 11 -382 11 l-354 0 41 88 c87 188 145 410 155 600 l6
102 36 9 c294 76 431 123 537 187 67 40 129 96 150 136 18 35 18 101 -1 137
-40 78 -187 170 -371 234 -105 37 -372 107 -405 107 -13 0 -21 12 -29 43 -42
167 -161 464 -269 673 -133 256 -232 383 -339 436 -56 27 -183 37 -246 18 -23
-6 -130 -59 -239 -117 -309 -165 -323 -164 -649 9 l-213 112 -95 3 c-73 2
-105 -1 -137 -14z m1168 -486 c8 1 41 11 74 23 50 18 74 21 140 17 l80 -5 37
41 37 42 26 -25 25 -26 -29 -28 -29 -28 61 -59 62 -58 27 32 26 32 26 -24 26
-25 -40 -41 c-37 -38 -39 -43 -30 -75 16 -54 11 -150 -9 -210 -23 -63 -25 -59
81 -111 l66 -32 -15 -33 -16 -32 -82 44 c-45 24 -88 43 -96 43 -8 -1 -40 -29
-71 -63 l-58 -62 60 -78 c33 -43 60 -81 60 -85 -1 -13 -52 -43 -59 -34 -3 5
-28 39 -55 75 l-48 66 -64 -41 -63 -42 0 -127 -1 -128 -35 0 -35 0 0 115 0
115 -58 0 c-162 0 -297 102 -337 255 -8 32 -15 75 -15 94 l0 34 -115 -6 -115
-5 0 32 0 33 77 7 c42 3 98 6 125 6 26 0 48 4 48 8 0 5 16 34 35 66 19 32 35
60 35 62 0 3 -60 43 -149 101 -2 1 5 16 16 32 l19 31 83 -56 84 -56 65 65 65
65 -53 87 c-29 47 -50 87 -49 89 2 1 15 10 28 19 l25 16 46 -77 c26 -43 53
-76 61 -75z m-1236 -1582 c266 -27 501 -37 850 -37 416 0 597 10 1048 59 l57
6 0 -60 c0 -55 -2 -62 -34 -89 -28 -25 -40 -50 -66 -135 -79 -257 -153 -353
-316 -410 -82 -29 -199 -28 -277 1 -115 43 -222 172 -288 345 -38 100 -63 125
-129 125 -40 0 -53 -5 -77 -29 -16 -16 -35 -48 -42 -72 -54 -178 -178 -332
-306 -376 -143 -50 -339 3 -445 120 -43 47 -104 178 -139 297 -26 89 -36 110
-66 135 -33 28 -35 34 -35 89 l0 59 63 -7 c34 -3 125 -13 202 -21z m173 -1753
l203 -140 125 -222 c69 -123 131 -235 139 -249 12 -25 -1 -84 -169 -757 -136
-544 -184 -721 -189 -699 -17 82 -467 2308 -467 2312 0 2 35 -21 78 -51 42
-30 168 -117 280 -194z m1472 -898 c-127 -626 -234 -1152 -237 -1169 -5 -22
-53 155 -189 699 -168 673 -181 732 -169 757 8 14 70 126 139 248 l124 222
279 193 c153 106 279 192 281 191 1 -1 -102 -514 -228 -1141z"/>
<path d="M4247 6946 c-81 -22 -81 -29 4 -109 342 -324 319 -310 339 -209 31
144 -65 290 -211 321 -61 13 -71 13 -132 -3z"/>
<path d="M4012 6758 c-51 -55 -102 -119 -114 -141 -40 -79 -34 -189 13 -267
l22 -35 71 76 c39 42 120 129 181 194 l109 117 -84 79 c-47 43 -89 78 -95 78
-5 0 -52 -45 -103 -101z"/>
<path d="M4165 6466 c-93 -101 -170 -189 -170 -197 0 -20 83 -48 146 -48 105
-1 142 19 267 148 l113 116 -85 83 c-47 45 -89 82 -93 81 -4 0 -84 -82 -178
-183z"/>
<path d="M3595 920 c-52 -25 -67 -37 -99 -84 -33 -49 -33 -70 -1 -84 41 -19
52 -15 77 29 35 63 103 89 178 69 54 -15 80 -56 80 -128 0 -93 -29 -133 -219
-302 l-141 -125 3 -50 2 -50 243 -3 242 -2 0 45 0 45 -190 0 -191 0 124 109
c146 129 172 158 205 231 58 124 14 257 -100 305 -53 22 -163 19 -213 -5z"/>
<path d="M1352 563 l3 -368 225 0 225 0 0 40 0 40 -177 3 -178 2 0 120 0 120
170 0 170 0 0 45 0 45 -170 0 -170 0 0 115 0 115 178 2 177 3 0 40 0 40 -228
3 -227 2 2 -367z"/>
<path d="M4025 917 c-3 -6 -4 -172 -3 -367 l3 -355 45 0 45 0 3 151 3 152 122
4 c108 3 127 6 166 28 63 35 95 100 95 189 -1 100 -38 163 -117 196 -48 20
-355 22 -362 2z m349 -102 c23 -22 26 -31 26 -95 0 -66 -2 -74 -29 -101 -29
-29 -31 -29 -140 -29 l-111 0 0 125 0 125 114 0 c106 0 115 -1 140 -25z"/>
<path d="M5760 847 c0 -51 -5 -88 -12 -95 -7 -7 -43 -12 -90 -12 l-78 0 0 -40
0 -40 90 0 90 0 0 -192 c0 -271 6 -278 223 -278 l107 0 0 45 0 45 -120 0 -120
0 0 190 0 190 120 0 120 0 0 40 0 40 -120 0 -120 0 0 95 0 95 -45 0 -45 0 0
-83z"/>
<path d="M1975 731 c-48 -22 -100 -74 -93 -93 3 -7 18 -20 33 -28 24 -13 28
-13 36 2 19 34 74 58 133 58 50 0 61 -4 87 -29 24 -25 29 -38 29 -79 l0 -50
-112 -3 c-127 -5 -165 -19 -205 -79 -42 -61 -23 -167 36 -210 40 -28 113 -43
168 -35 36 5 56 16 85 45 l38 38 15 -29 c16 -31 72 -54 115 -47 22 3 25 9 28
46 l3 42 -35 0 -36 0 0 158 c-1 208 -17 253 -105 293 -54 25 -166 25 -220 0z
m225 -349 c0 -48 -4 -62 -22 -79 -50 -45 -140 -53 -194 -18 -20 13 -24 24 -24
64 0 72 30 89 163 90 l77 1 0 -58z"/>
<path d="M3125 734 c-16 -8 -38 -25 -47 -37 l-18 -22 0 33 c0 32 0 32 -50 32
l-50 0 2 -272 3 -273 45 0 45 0 5 213 c5 209 6 214 28 233 53 42 146 36 186
-12 26 -30 26 -31 26 -222 0 -106 4 -198 9 -205 5 -8 23 -12 47 -10 l39 3 3
193 c1 113 -2 209 -8 232 -13 49 -54 99 -97 116 -43 19 -131 18 -168 -2z"/>
<path d="M4680 734 c-75 -33 -121 -98 -140 -201 -29 -162 50 -312 179 -343
136 -32 259 38 298 169 11 40 14 78 10 138 -6 110 -41 174 -117 221 -48 28
-62 32 -125 32 -40 -1 -85 -7 -105 -16z m180 -82 c57 -28 71 -69 68 -194 -3
-117 -16 -149 -73 -177 -39 -19 -117 -17 -153 4 -53 32 -67 68 -67 180 0 114
12 147 64 182 42 28 111 31 161 5z"/>
<path d="M5215 738 c-79 -28 -121 -89 -112 -165 9 -82 70 -122 221 -144 44 -6
90 -16 103 -22 44 -20 44 -88 0 -121 -57 -43 -218 -20 -266 38 -18 21 -27 20
-63 -5 l-30 -21 33 -34 c68 -70 206 -101 312 -70 136 39 186 159 106 251 -35
39 -59 48 -187 70 -52 9 -102 21 -112 28 -43 26 -30 96 21 117 16 7 58 11 97
8 55 -3 78 -9 112 -32 l43 -28 25 25 c14 14 22 32 19 40 -3 8 -34 29 -68 46
-55 27 -72 31 -143 30 -45 0 -94 -5 -111 -11z"/>
<path d="M2404 726 c-3 -8 -4 -25 -2 -38 3 -21 8 -23 81 -26 l77 -3 0 -189 0
-190 -75 0 c-71 0 -75 -1 -81 -24 -3 -14 -3 -34 1 -45 6 -20 13 -21 231 -21
l224 0 0 45 0 45 -100 0 -100 0 0 140 0 139 31 35 c36 41 79 56 167 56 l62 0
0 45 0 45 -67 0 c-80 0 -142 -26 -172 -73 l-21 -32 0 53 0 52 -125 0 c-100 0
-127 -3 -131 -14z"/>
</g>
</svg>
