<svg width="56" height="55" viewBox="0 0 56 55" fill="none" xmlns="http://www.w3.org/2000/svg">
<g filter="url(#filter0_d_383_2918)">
<path d="M20.9973 8.89814C18.6763 8.98653 16.5805 9.79728 15.4593 10.8954C14.9386 11.4053 14.0943 11.4053 13.5737 10.8955C13.0529 10.3858 13.0527 9.55915 13.5734 9.0492C15.3033 7.35511 18.1185 6.39474 20.8935 6.28899C23.6867 6.18259 26.7362 6.93145 28.8718 9.02295C29.3923 9.53277 29.3923 10.3595 28.8715 10.8693C28.3509 11.3791 27.5066 11.379 26.9859 10.8691C25.5313 9.44439 23.2999 8.81041 20.9973 8.89814Z" fill="#6A5988"/>
<path fill-rule="evenodd" clip-rule="evenodd" d="M34.5807 27.9182C37.13 24.9632 38.6667 21.1434 38.6667 16.9722C38.6667 7.59873 30.9063 0 21.3333 0C11.7604 0 4 7.59873 4 16.9722C4 26.3457 11.7604 33.9445 21.3333 33.9445C25.5932 33.9445 29.4943 32.4398 32.5122 29.9436L32 32.8272L42.0183 42.6367L47.5439 37.2262L37.5256 27.4167L34.5807 27.9182ZM21.3333 30.0278C28.6971 30.0278 34.6667 24.1826 34.6667 16.9722C34.6667 9.76191 28.6971 3.91667 21.3333 3.91667C13.9696 3.91667 8 9.76191 8 16.9722C8 24.1826 13.9696 30.0278 21.3333 30.0278Z" fill="#6A5988"/>
<path d="M43.9039 44.4831L49.4295 39.0726L51.2371 40.8427C52.2543 41.8387 52.2543 43.4536 51.2371 44.4496L49.3953 46.2531C48.3781 47.2491 46.7289 47.2491 45.7117 46.2531L43.9039 44.4831Z" fill="#6A5988"/>
</g>
<defs>
<filter id="filter0_d_383_2918" x="0" y="0" width="56" height="55.0001" filterUnits="userSpaceOnUse" color-interpolation-filters="sRGB">
<feFlood flood-opacity="0" result="BackgroundImageFix"/>
<feColorMatrix in="SourceAlpha" type="matrix" values="0 0 0 0 0 0 0 0 0 0 0 0 0 0 0 0 0 0 127 0" result="hardAlpha"/>
<feOffset dy="4"/>
<feGaussianBlur stdDeviation="2"/>
<feComposite in2="hardAlpha" operator="out"/>
<feColorMatrix type="matrix" values="0 0 0 0 0 0 0 0 0 0 0 0 0 0 0 0 0 0 0.25 0"/>
<feBlend mode="normal" in2="BackgroundImageFix" result="effect1_dropShadow_383_2918"/>
<feBlend mode="normal" in="SourceGraphic" in2="effect1_dropShadow_383_2918" result="shape"/>
</filter>
</defs>
</svg>
